<svg width="56" height="56" viewBox="0 0 56 56" fill="none" xmlns="http://www.w3.org/2000/svg">
<path d="M23.3333 41.2037V46.667C23.3333 49.2443 25.4227 51.3337 28 51.3337C30.5773 51.3337 32.6667 49.2443 32.6667 46.667V41.2037M28 4.66699V7.00033M7.00001 28.0003H4.66667M12.8333 12.8337L11.4331 11.4334M43.1667 12.8337L44.5673 11.4334M51.3333 28.0003H49M42 28.0003C42 35.7323 35.732 42.0003 28 42.0003C20.268 42.0003 14 35.7323 14 28.0003C14 20.2683 20.268 14.0003 28 14.0003C35.732 14.0003 42 20.2683 42 28.0003Z" stroke="white" stroke-width="2" stroke-linecap="round" stroke-linejoin="round"/>
</svg>
