<svg width="144" height="142" viewBox="0 0 144 142" fill="none" xmlns="http://www.w3.org/2000/svg">
<path d="M66.7396 112.417C92.8811 112.417 114.073 91.2248 114.073 65.0833C114.073 38.9419 92.8811 17.75 66.7396 17.75C40.5981 17.75 19.4062 38.9419 19.4062 65.0833C19.4062 91.2248 40.5981 112.417 66.7396 112.417Z" fill="#FFE6F1"/>
<path d="M125.906 124.25L100.169 98.5125M66.7396 35.5C83.078 35.5 96.3229 48.7449 96.3229 65.0833M114.073 65.0833C114.073 91.2248 92.8811 112.417 66.7396 112.417C40.5981 112.417 19.4062 91.2248 19.4062 65.0833C19.4062 38.9419 40.5981 17.75 66.7396 17.75C92.8811 17.75 114.073 38.9419 114.073 65.0833Z" stroke="#DE6798" stroke-width="2" stroke-linecap="round" stroke-linejoin="round"/>
<path d="M1 32.8967L17.4212 34.5533" stroke="#DC5F92" stroke-width="2" stroke-linecap="round" stroke-linejoin="round"/>
<path d="M134.312 32.8967L117.891 34.5533" stroke="#DC5F92" stroke-width="2" stroke-linecap="round" stroke-linejoin="round"/>
<path d="M18.0078 10L29.9102 17.4784" stroke="#DC5F92" stroke-width="2" stroke-linecap="round" stroke-linejoin="round"/>
<path d="M117.305 10L105.402 17.4784" stroke="#DC5F92" stroke-width="2" stroke-linecap="round" stroke-linejoin="round"/>
</svg>
