<svg width="156" height="184" viewBox="0 0 156 184" fill="none" xmlns="http://www.w3.org/2000/svg">
<g clip-path="url(#clip0_13715_972)">
<g clip-path="url(#clip1_13715_972)">
<path d="M69.0725 162.665H68.5282C67.7506 161.599 66.9341 160.532 66.1176 159.545C66.1954 154.568 69.1114 152.079 73.8936 153.027C74.0491 153.264 76.7707 157.412 77.0428 157.846C75.682 160.927 72.5717 162.626 69.3058 162.626C69.228 162.626 69.1502 162.626 69.0725 162.626M99.4375 117.952C97.9212 117.438 95.8217 116.806 94.1887 116.293L95.0441 112.698C98.8154 114.081 102.587 115.463 106.397 116.648C105.775 117.754 105.192 118.821 104.608 119.927C102.898 119.216 101.148 118.584 99.3986 117.952M112.657 116.411C109.08 115.029 105.231 113.646 101.576 112.382C98.0767 111.197 94.2665 110.052 90.7673 108.867C90.5341 108.788 89.8731 108.551 89.6787 108.472C89.6009 108.472 89.6009 108.472 89.5621 108.432C89.5621 108.432 89.5232 108.432 89.4843 108.432C89.1733 108.235 89.251 107.603 89.3677 107.287C90.0675 104.996 91.4672 100.414 92.3225 97.7279C93.5278 98.0044 94.7719 98.3204 95.9772 98.6364C95.8994 98.7549 95.8606 98.8734 95.7828 98.9919C95.394 99.7029 95.1607 100.453 95.0052 101.243C94.8108 101.994 94.8886 102.863 94.5775 103.613C94.422 103.969 94.1887 104.324 93.9943 104.68C93.6833 105.43 93.5667 106.22 93.6444 107.05H93.7222C93.9943 106.734 94.1887 106.418 94.3831 106.023C94.5387 105.667 94.6942 105.272 94.7719 104.877C94.8108 104.482 94.7719 104.048 94.8886 103.653C95.0441 102.863 95.5884 102.231 95.8606 101.48C96.2494 100.611 96.4826 99.7029 96.5215 98.7549C98.1156 99.1894 99.6708 99.6239 101.226 100.098C100.643 101.243 100.215 102.468 99.8263 103.692C99.3597 105.233 99.0098 106.773 98.8932 108.393C99.7097 107.01 100.254 105.509 100.721 103.969C101.07 102.705 101.42 101.48 101.576 100.177C103.87 100.848 106.125 101.599 108.38 102.389C107.991 102.823 107.641 103.297 107.291 103.771C106.008 105.825 104.997 108.037 104.842 110.526H104.92C105.269 109.854 105.619 109.143 105.93 108.432C106.786 106.615 107.797 104.403 108.652 102.507C110.557 103.179 112.501 103.85 114.367 104.561C113.356 105.746 112.773 107.168 112.268 108.63C111.723 110.131 111.179 111.592 110.674 113.133H110.751C111.529 111.79 112.229 110.368 112.968 108.946C113.706 107.603 114.367 106.181 114.562 104.64C115.767 105.075 116.972 105.549 118.139 106.023L118.566 106.181L118.761 106.26C118.761 106.26 118.838 106.26 118.916 106.26C118.411 107.326 115.767 112.817 115.339 113.765C115.028 114.397 114.484 115.621 114.212 116.253C114.134 116.411 114.017 116.609 113.862 116.648C113.784 116.648 113.667 116.688 113.59 116.688C113.279 116.688 112.89 116.53 112.618 116.411M113.24 18.0967C107.952 19.3606 104.92 23.5081 103.287 28.4851C101.77 33.0275 101.265 37.9255 100.487 42.6259C98.2711 53.8438 93.2945 64.1927 89.0177 74.7392C88.5123 76.0426 87.968 77.4251 87.4626 78.7681L86.996 80.1506C86.3351 81.9676 86.024 84.0216 86.4128 85.9966C87.1126 89.907 90.1841 92.8695 93.5667 94.568V94.8445L93.2168 96.069C93.2168 96.069 93.139 96.306 93.1001 96.385C92.7113 96.2665 92.3225 96.1875 91.9337 96.069L91.2728 95.911C90.3397 98.7154 88.5123 103.929 87.5792 106.734C87.0738 108.116 87.4237 109.854 88.9011 110.407C89.0955 110.486 89.912 110.802 90.0675 110.881C91.4672 111.395 92.8668 111.948 94.3054 112.461C93.9166 113.883 93.1779 116.451 93.139 116.53L93.0224 116.964C93.0224 116.964 93.45 117.122 93.9166 117.28L80.1143 166.418L77.9759 163.613C79.2978 162.112 79.9977 160.611 79.9977 160.611L78.0926 157.649V157.609L74.4768 152.553L74.399 152.435C70.9387 151.803 67.5173 152.711 66.3898 156.464C66.0787 157.491 65.9621 158.597 66.0399 159.663C66.6619 160.967 67.3618 162.27 68.0616 163.534L70.4721 166.22C71.4441 166.536 72.3384 166.576 73.1937 166.497C73.9713 167.721 76.8484 172.343 78.3258 174.16C80.0365 176.253 83.2247 174.594 83.2247 174.594C83.8856 174.278 84.6632 172.461 84.6632 172.461L103.986 120.835C104.22 120.914 104.414 120.954 104.647 121.033L105.075 121.151C105.58 119.848 106.125 118.228 106.552 116.806C106.669 116.806 106.786 116.885 106.902 116.925C108.38 117.399 110.052 117.912 111.568 118.347C112.54 118.663 113.629 118.979 114.639 118.465C115.184 118.189 115.573 117.675 115.767 117.122C115.884 116.806 116.117 116.095 116.195 115.779C117.206 112.698 118.216 109.262 119.111 106.26C118.994 106.141 118.761 106.062 118.644 106.023C118.411 105.904 117.633 105.549 117.4 105.47C109.818 102.112 102.081 99.0314 94.0721 96.7405C101.459 98.5969 108.652 101.283 115.767 104.008C116 104.087 116.661 104.364 116.856 104.443C117.011 104.482 117.167 104.601 117.322 104.601C117.517 104.166 117.75 103.732 117.944 103.258L118.294 102.863C121.521 104.008 125.098 103.258 128.092 101.717C129.608 101.046 130.502 99.5054 131.241 98.0834C132.913 94.726 133.924 91.092 134.779 87.458C136.179 81.5331 137.773 75.5291 139.678 69.8017C141.389 64.8247 143.138 59.7688 145.782 55.2263C148.426 51.0789 150.72 46.6154 151.42 41.6779C152.197 36.5825 150.72 31.5265 146.832 28.0506C145.354 26.7471 143.644 25.7201 141.816 25.0486C139.017 23.8636 136.14 22.7576 133.263 21.7701C129.803 20.5456 126.303 19.4791 122.726 18.5707C121.521 18.2547 120.316 17.9782 119.033 17.7017C118.644 17.7017 118.294 17.7017 117.905 17.7017C116.311 17.7017 114.678 17.8202 113.084 18.2547" fill="url(#paint0_linear_13715_972)"/>
<mask id="mask0_13715_972" style="mask-type:luminance" maskUnits="userSpaceOnUse" x="66" y="17" width="86" height="159">
<path d="M69.0725 162.665H68.5282C67.7506 161.599 66.9341 160.532 66.1176 159.545C66.1954 154.568 69.1114 152.079 73.8936 153.027C74.0491 153.264 76.7707 157.412 77.0428 157.846C75.682 160.927 72.5717 162.626 69.3058 162.626C69.228 162.626 69.1502 162.626 69.0725 162.626M99.4375 117.952C97.9212 117.438 95.8217 116.806 94.1887 116.293L95.0441 112.698C98.8154 114.081 102.587 115.463 106.397 116.648C105.775 117.754 105.192 118.821 104.608 119.927C102.898 119.216 101.148 118.584 99.3986 117.952M112.657 116.411C109.08 115.029 105.231 113.646 101.576 112.382C98.0767 111.197 94.2665 110.052 90.7673 108.867C90.5341 108.788 89.8731 108.551 89.6787 108.472C89.6009 108.472 89.6009 108.472 89.5621 108.432C89.5621 108.432 89.5232 108.432 89.4843 108.432C89.1733 108.235 89.251 107.603 89.3677 107.287C90.0675 104.996 91.4672 100.414 92.3225 97.7279C93.5278 98.0044 94.7719 98.3204 95.9772 98.6364C95.8994 98.7549 95.8606 98.8734 95.7828 98.9919C95.394 99.7029 95.1607 100.453 95.0052 101.243C94.8108 101.994 94.8886 102.863 94.5775 103.613C94.422 103.969 94.1887 104.324 93.9943 104.68C93.6833 105.43 93.5667 106.22 93.6444 107.05H93.7222C93.9943 106.734 94.1887 106.418 94.3831 106.023C94.5387 105.667 94.6942 105.272 94.7719 104.877C94.8108 104.482 94.7719 104.048 94.8886 103.653C95.0441 102.863 95.5884 102.231 95.8606 101.48C96.2494 100.611 96.4826 99.7029 96.5215 98.7549C98.1156 99.1894 99.6708 99.6239 101.226 100.098C100.643 101.243 100.215 102.468 99.8263 103.692C99.3597 105.233 99.0098 106.773 98.8932 108.393C99.7097 107.01 100.254 105.509 100.721 103.969C101.07 102.705 101.42 101.48 101.576 100.177C103.87 100.848 106.125 101.599 108.38 102.389C107.991 102.823 107.641 103.297 107.291 103.771C106.008 105.825 104.997 108.037 104.842 110.526H104.92C105.269 109.854 105.619 109.143 105.93 108.432C106.786 106.615 107.797 104.403 108.652 102.507C110.557 103.179 112.501 103.85 114.367 104.561C113.356 105.746 112.773 107.168 112.268 108.63C111.723 110.131 111.179 111.592 110.674 113.133H110.751C111.529 111.79 112.229 110.368 112.968 108.946C113.706 107.603 114.367 106.181 114.562 104.64C115.767 105.075 116.972 105.549 118.139 106.023L118.566 106.181L118.761 106.26C118.761 106.26 118.838 106.26 118.916 106.26C118.411 107.326 115.767 112.817 115.339 113.765C115.028 114.397 114.484 115.621 114.212 116.253C114.134 116.411 114.017 116.609 113.862 116.648C113.784 116.648 113.667 116.688 113.59 116.688C113.279 116.688 112.89 116.53 112.618 116.411M117.244 104.206L117.05 104.127L116.7 103.969C113.045 102.468 109.352 101.006 105.658 99.6634C101.809 98.2809 97.9212 96.938 93.9555 95.911L94.2665 94.963V94.884V94.805L94.1887 94.2915V94.094C92.478 93.304 90.884 92.119 89.6398 90.697C87.4237 88.248 86.6072 85.0091 87.4626 81.7701C87.657 81.0196 88.1235 79.8346 88.3568 79.1236C90.223 74.2257 92.4392 69.5252 94.4998 64.6667C97.8434 56.7273 101.109 48.6299 102.431 40.0585C102.976 36.3455 103.636 32.593 104.842 29.0381C106.319 24.6536 108.963 20.9011 113.667 19.8741C115.223 19.4396 117.789 19.4001 118.877 19.4396C120.005 19.6766 121.21 19.9926 122.338 20.3086C125.837 21.2566 129.258 22.4021 132.641 23.6266C135.44 24.6536 138.278 25.8386 141.039 27.0236C142.594 27.6161 144.071 28.5246 145.315 29.7096C151.458 35.3185 149.32 43.7714 145.86 50.3284L145.004 51.9084C144.382 52.9748 143.683 54.0018 143.099 55.1078C140.844 59.5713 139.211 64.2717 137.734 69.0512C135.79 75.4501 134.235 82.2441 132.913 88.8405C132.174 91.9215 130.541 99.3869 127.703 100.809C124.904 102.468 121.521 103.337 118.333 102.389H118.216L118.139 102.468L117.75 103.021C117.555 103.455 117.478 103.89 117.283 104.364C117.283 104.324 117.244 104.285 117.206 104.285M113.24 18.0967C107.952 19.3606 104.92 23.5081 103.287 28.4851C101.77 33.0275 101.265 37.9255 100.487 42.6259C98.2711 53.8438 93.2945 64.1927 89.0177 74.7392C88.5123 76.0426 87.968 77.4251 87.4626 78.7681L86.996 80.1506C86.3351 81.9676 86.024 84.0216 86.4128 85.9965C87.1126 89.907 90.1841 92.8695 93.5667 94.568V94.8445L93.2168 96.069C93.2168 96.069 93.139 96.306 93.1001 96.3849C92.7113 96.2664 92.3225 96.1875 91.9337 96.069L91.2728 95.911C90.3397 98.7154 88.5123 103.929 87.5792 106.734C87.0738 108.116 87.4237 109.854 88.9011 110.407C89.0955 110.486 89.912 110.802 90.0675 110.881C91.4672 111.395 92.8668 111.948 94.3054 112.461C93.9166 113.883 93.1779 116.451 93.139 116.53L93.0224 116.964C93.0224 116.964 93.45 117.122 93.9166 117.28L80.1143 166.418L77.9759 163.613C79.2978 162.112 79.9977 160.611 79.9977 160.611L78.0926 157.649V157.609L74.4768 152.553L74.399 152.435C70.9387 151.803 67.5173 152.711 66.3898 156.464C66.0787 157.491 65.9621 158.597 66.0399 159.663C66.6619 160.967 67.3618 162.27 68.0616 163.534L70.4721 166.22C71.4441 166.536 72.3384 166.576 73.1937 166.497C73.9713 167.721 76.8484 172.343 78.3258 174.16C80.0365 176.253 83.2247 174.594 83.2247 174.594C83.8856 174.278 84.6632 172.461 84.6632 172.461L103.986 120.835C104.22 120.914 104.414 120.954 104.647 121.033L105.075 121.151C105.58 119.848 106.125 118.228 106.552 116.806C106.669 116.806 106.786 116.885 106.902 116.925C108.38 117.399 110.052 117.912 111.568 118.347C112.54 118.663 113.629 118.979 114.639 118.465C115.184 118.189 115.573 117.675 115.767 117.122C115.884 116.806 116.117 116.095 116.195 115.779C117.206 112.698 118.216 109.262 119.111 106.26C118.994 106.141 118.761 106.062 118.644 106.023C118.411 105.904 117.633 105.549 117.4 105.47C109.818 102.112 102.081 99.0314 94.0721 96.7404C101.459 98.5969 108.652 101.283 115.767 104.008C116 104.087 116.661 104.364 116.856 104.443C117.011 104.482 117.167 104.601 117.322 104.601C117.517 104.166 117.75 103.732 117.944 103.258L118.294 102.863C121.521 104.008 125.098 103.258 128.092 101.717C129.608 101.046 130.502 99.5054 131.241 98.0834C132.913 94.726 133.924 91.092 134.779 87.458C136.179 81.5331 137.773 75.5291 139.678 69.8017C141.389 64.8247 143.138 59.7688 145.782 55.2263C148.426 51.0789 150.72 46.6154 151.42 41.6779C152.197 36.5825 150.72 31.5265 146.832 28.0506C145.354 26.7471 143.644 25.7201 141.816 25.0486C139.017 23.8636 136.14 22.7576 133.263 21.7701C129.803 20.5456 126.303 19.4791 122.726 18.5707C121.521 18.2547 120.316 17.9782 119.033 17.7017C118.644 17.7017 118.294 17.7017 117.905 17.7017C116.311 17.7017 114.678 17.8202 113.084 18.2547" fill="white"/>
</mask>
<g mask="url(#mask0_13715_972)">
<path d="M152.275 17.5432H65.9619V176.134H152.275V17.5432Z" fill="#DAACBE"/>
</g>
</g>
</g>
<path d="M40.3945 125.805C40.4567 125.835 40.5246 125.844 40.5869 125.833C40.6755 125.815 40.7578 125.762 40.8005 125.672C40.8748 125.523 40.8164 125.34 40.6677 125.266L40.4886 125.172C40.3399 125.098 40.157 125.156 40.0827 125.305C40.0046 125.455 40.0667 125.637 40.2154 125.711L40.3934 125.801L40.3945 125.805Z" fill="#DAACBE"/>
<path d="M34.9356 123.217C34.9918 123.241 35.0548 123.247 35.1134 123.238C35.2106 123.221 35.2933 123.155 35.3349 123.061C35.4032 122.906 35.3298 122.728 35.1796 122.662L34.9926 122.583C34.8374 122.514 34.659 122.588 34.5944 122.742C34.5298 122.896 34.5995 123.075 34.7535 123.14L34.9367 123.22L34.9356 123.217Z" fill="#DAACBE"/>
<path d="M49.5769 131.218C49.5769 131.218 49.578 131.222 49.5828 131.225L49.7514 131.338C49.818 131.384 49.9005 131.4 49.9778 131.385C50.0552 131.371 50.1285 131.328 50.1729 131.258C50.2668 131.12 50.2309 130.93 50.089 130.838L49.9302 130.729C49.9302 130.729 49.9291 130.726 49.9242 130.723C49.7557 130.61 49.5872 130.496 49.4198 130.386C49.2816 130.293 49.0932 130.332 48.9994 130.47C48.9055 130.609 48.9451 130.797 49.0833 130.891C49.2469 131.002 49.4143 131.111 49.578 131.222L49.5769 131.218Z" fill="#DAACBE"/>
<path d="M45.6746 128.74C45.7401 128.782 45.8166 128.792 45.8864 128.78C45.9675 128.764 46.0434 128.717 46.0894 128.638C46.1773 128.493 46.1302 128.307 45.9867 128.223L45.8129 128.119C45.6695 128.035 45.4832 128.082 45.3992 128.226C45.3151 128.369 45.3622 128.555 45.5056 128.639L45.6757 128.744L45.6746 128.74Z" fill="#DAACBE"/>
<path d="M44.452 128.021C44.452 128.021 44.4569 128.024 44.4618 128.026L44.6345 128.126C44.6989 128.164 44.7716 128.176 44.8415 128.163C44.9263 128.146 45.0022 128.099 45.0471 128.016C45.1312 127.873 45.0841 127.686 44.9369 127.604L44.7691 127.506C44.7691 127.506 44.7642 127.504 44.7593 127.501C44.5818 127.398 44.4091 127.298 44.2327 127.2C44.0892 127.116 43.9004 127.168 43.8211 127.314C43.7382 127.461 43.7879 127.642 43.9351 127.725C44.1067 127.821 44.2794 127.921 44.452 128.021Z" fill="#DAACBE"/>
<path d="M29.3218 120.977C29.3732 120.999 29.4265 120.999 29.4813 120.991C29.5822 120.973 29.6751 120.901 29.7096 120.797C29.7655 120.641 29.6846 120.465 29.5291 120.409L29.3368 120.339C29.1813 120.283 29.0051 120.364 28.9491 120.52C28.8942 120.679 28.974 120.851 29.1296 120.907L29.3207 120.973L29.3218 120.977Z" fill="#DAACBE"/>
<path d="M34.2231 122.578C34.2877 122.424 34.2143 122.246 34.0603 122.181L33.8733 122.102C33.8733 122.102 33.8733 122.102 33.8696 122.103C33.6826 122.024 33.4967 121.948 33.3146 121.872C33.1606 121.807 32.9833 121.884 32.9187 122.038C32.854 122.192 32.9274 122.371 33.0852 122.434C33.2711 122.51 33.457 122.585 33.644 122.665C33.644 122.665 33.644 122.665 33.6477 122.663L33.8298 122.74C33.8861 122.764 33.9453 122.771 34.0028 122.758C34.1 122.742 34.1865 122.675 34.2269 122.577L34.2231 122.578Z" fill="#DAACBE"/>
<path d="M39.4135 124.633C39.4135 124.633 39.4086 124.631 39.4037 124.628C39.222 124.539 39.0403 124.45 38.8586 124.361C38.7099 124.287 38.5281 124.349 38.4549 124.501C38.3816 124.654 38.4427 124.832 38.5951 124.905C38.772 124.991 38.9488 125.078 39.1268 125.168C39.1268 125.168 39.1317 125.171 39.1365 125.173L39.3145 125.264C39.3767 125.294 39.4446 125.303 39.5058 125.288C39.5944 125.27 39.6756 125.214 39.7231 125.126C39.7974 124.977 39.7391 124.794 39.5866 124.721L39.4135 124.633Z" fill="#DAACBE"/>
<path d="M59.9986 139.443L60.1453 139.58C60.2186 139.648 60.3157 139.672 60.4054 139.658C60.4678 139.647 60.5282 139.617 60.5708 139.568C60.6852 139.444 60.6779 139.254 60.554 139.14L60.4073 139.003C60.2835 138.889 60.0936 138.896 59.9792 139.02C59.8648 139.144 59.8721 139.334 59.996 139.448L59.9986 139.443Z" fill="#DAACBE"/>
<path d="M71.7913 153.129L71.906 153.295C71.9733 153.398 72.097 153.443 72.213 153.421C72.2516 153.413 72.2918 153.397 72.326 153.375C72.4655 153.281 72.5002 153.095 72.4057 152.955L72.291 152.789C72.1964 152.649 72.0067 152.616 71.871 152.709C71.7315 152.804 71.6979 152.994 71.7913 153.129Z" fill="#DAACBE"/>
<path d="M67.4423 147.327C67.4423 147.327 67.4445 147.334 67.4494 147.337L67.5769 147.491C67.6483 147.58 67.7611 147.616 67.8659 147.597C67.912 147.588 67.9635 147.568 68.0019 147.532C68.1294 147.425 68.1506 147.235 68.0433 147.107L67.9217 146.96C67.9217 146.96 67.9195 146.952 67.9184 146.948C67.7898 146.79 67.6585 146.637 67.5299 146.479C67.4226 146.352 67.2336 146.334 67.1023 146.443C66.9748 146.55 66.9574 146.739 67.0658 146.87C67.1922 147.021 67.3197 147.175 67.4461 147.325L67.4423 147.327Z" fill="#DAACBE"/>
<path d="M74.3485 160.256C74.4891 160.165 74.5324 159.98 74.4416 159.84L74.3404 159.678C74.3404 159.678 74.3382 159.67 74.3371 159.667C74.2287 159.494 74.1167 159.323 74.0095 159.155C73.9187 159.014 73.7305 158.972 73.591 159.067C73.4504 159.158 73.412 159.345 73.5028 159.485C73.6089 159.65 73.716 159.818 73.8221 159.983C73.8221 159.983 73.8244 159.99 73.8255 159.994L73.9327 160.163C73.9939 160.259 74.0988 160.309 74.2069 160.302C74.2553 160.3 74.3041 160.285 74.3496 160.259L74.3485 160.256Z" fill="#DAACBE"/>
<path d="M68.2097 148.275L68.3334 148.431C68.4059 148.523 68.5187 148.559 68.6272 148.539C68.6734 148.53 68.7211 148.512 68.7606 148.479C68.893 148.375 68.9142 148.185 68.8095 148.052L68.6846 147.893C68.58 147.761 68.3898 147.74 68.2574 147.844C68.1251 147.949 68.1039 148.139 68.2085 148.271L68.2097 148.275Z" fill="#DAACBE"/>
<path d="M71.1045 152.135L71.2181 152.298C71.2891 152.399 71.4079 152.441 71.5202 152.42C71.5626 152.412 71.6028 152.396 71.6396 152.369C71.7791 152.274 71.8089 152.085 71.7144 151.946L71.5997 151.78C71.485 151.614 71.3665 151.449 71.2481 151.284C71.1509 151.149 70.9612 151.115 70.8266 151.213C70.692 151.31 70.6584 151.499 70.7556 151.634C70.8729 151.795 70.9876 151.962 71.1061 152.127L71.1045 152.135Z" fill="#DAACBE"/>
<path d="M75.1065 157.825C74.9637 157.908 74.9118 158.091 74.9924 158.239L75.0932 158.413C75.16 158.528 75.2871 158.585 75.4106 158.56C75.4406 158.551 75.4744 158.541 75.506 158.524C75.6526 158.439 75.7007 158.258 75.6201 158.11L75.5193 157.935C75.4349 157.789 75.2531 157.741 75.1054 157.821L75.1065 157.825Z" fill="#DAACBE"/>
<path d="M74.0746 156.676C74.1792 156.849 74.2826 157.019 74.3834 157.193C74.3834 157.193 74.3856 157.201 74.3867 157.204L74.4842 157.367C74.5499 157.479 74.6807 157.534 74.8004 157.511C74.8342 157.5 74.868 157.49 74.8996 157.473C75.0424 157.39 75.0884 157.2 75.0051 157.058L74.9006 156.884C74.9006 156.884 74.8983 156.877 74.8972 156.873C74.7938 156.703 74.693 156.529 74.5895 156.36C74.5025 156.218 74.3169 156.171 74.1752 156.258C74.0335 156.345 73.9865 156.53 74.0735 156.672L74.0746 156.676Z" fill="#DAACBE"/>
<path d="M55.0098 134.407L54.8504 134.283C54.8504 134.283 54.8455 134.28 54.8406 134.278C54.6823 134.157 54.5265 134.032 54.3682 133.911C54.2364 133.812 54.0472 133.835 53.9437 133.968C53.8439 134.1 53.8673 134.289 54.0002 134.392C54.1586 134.513 54.3181 134.637 54.4775 134.761C54.4775 134.761 54.4786 134.765 54.4835 134.768L54.637 134.886C54.707 134.943 54.7944 134.962 54.8792 134.945C54.949 134.932 55.0159 134.896 55.0626 134.833C55.1662 134.7 55.1427 134.511 55.0098 134.407Z" fill="#DAACBE"/>
<path d="M55.4221 135.506L55.5778 135.632C55.6478 135.689 55.74 135.71 55.8211 135.694C55.891 135.682 55.9541 135.647 56.0019 135.588C56.1066 135.458 56.0869 135.268 55.9566 135.16L55.8009 135.034C55.6718 134.93 55.4815 134.949 55.3731 135.08C55.2646 135.21 55.2881 135.399 55.4183 135.507L55.4221 135.506Z" fill="#DAACBE"/>
<path d="M64.2701 143.704L64.4077 143.851C64.4806 143.931 64.5875 143.961 64.6847 143.944C64.7384 143.933 64.7936 143.912 64.8335 143.868C64.955 143.754 64.9638 143.563 64.849 143.438L64.7114 143.291C64.5977 143.169 64.4071 143.161 64.2818 143.275C64.1603 143.389 64.1515 143.58 64.2663 143.705L64.2701 143.704Z" fill="#DAACBE"/>
<path d="M50.7447 132.016C50.8125 132.065 50.8988 132.081 50.9723 132.067C51.0497 132.052 51.1192 132.011 51.1648 131.944C51.2586 131.806 51.2276 131.619 51.0883 131.522L50.9187 131.405C50.7805 131.311 50.5936 131.342 50.496 131.481C50.4022 131.619 50.4343 131.81 50.5725 131.904L50.7372 132.018L50.7447 132.016Z" fill="#DAACBE"/>
<path d="M63.4381 142.827L63.5757 142.975C63.6475 143.051 63.7544 143.081 63.8516 143.064C63.9102 143.055 63.9643 143.031 64.0042 142.986C64.1246 142.869 64.1296 142.679 64.0159 142.558L63.8745 142.412C63.7331 142.266 63.5917 142.12 63.4503 141.974C63.3329 141.853 63.1396 141.85 63.023 141.966C62.9026 142.083 62.9024 142.275 63.015 142.393C63.1553 142.535 63.2929 142.683 63.4332 142.825L63.4381 142.827Z" fill="#DAACBE"/>
<path d="M59.1021 138.627C59.1021 138.627 59.1021 138.627 59.1032 138.63L59.2536 138.765C59.3258 138.83 59.4229 138.854 59.5126 138.84C59.575 138.829 59.6343 138.795 59.6806 138.745C59.7913 138.622 59.7829 138.429 59.6601 138.318L59.5145 138.185C59.5145 138.185 59.5145 138.185 59.5134 138.182C59.363 138.047 59.2126 137.911 59.0584 137.777C58.9319 137.668 58.7431 137.679 58.6287 137.803C58.5191 137.929 58.5302 138.118 58.6541 138.232C58.8034 138.364 58.9527 138.495 59.0994 138.631L59.1021 138.627Z" fill="#DAACBE"/>
<path d="M64.0698 151.04C64.1853 150.92 64.1855 150.728 64.0654 150.612L63.9262 150.474C63.9262 150.474 63.9262 150.474 63.9251 150.47C63.7811 150.329 63.6359 150.184 63.4892 150.048C63.3691 149.932 63.177 149.932 63.0626 150.056C62.9471 150.176 62.9506 150.367 63.0708 150.483C63.2137 150.62 63.3577 150.761 63.4969 150.9C63.4969 150.9 63.4969 150.9 63.498 150.903L63.642 151.045C63.7165 151.116 63.8147 151.145 63.9119 151.128C63.9705 151.119 64.0272 151.09 64.0709 151.044L64.0698 151.04Z" fill="#DAACBE"/>
<path d="M33.0935 131.494C32.9012 131.425 32.7101 131.359 32.5227 131.292C32.3634 131.237 32.192 131.32 32.1361 131.476C32.0812 131.635 32.1647 131.807 32.3203 131.863C32.5077 131.93 32.6988 131.995 32.8911 132.065L33.0785 132.132C33.1287 132.15 33.1831 132.154 33.2379 132.146C33.3389 132.128 33.4318 132.056 33.4662 131.951C33.5222 131.796 33.4413 131.62 33.2858 131.564L33.0935 131.494Z" fill="#DAACBE"/>
<path d="M34.2126 132.551C34.2677 132.572 34.3221 132.576 34.372 132.565C34.473 132.548 34.5621 132.476 34.6014 132.375C34.6611 132.218 34.5802 132.042 34.4247 131.986L34.2362 131.915C34.0795 131.855 33.9033 131.936 33.8473 132.092C33.7876 132.248 33.8685 132.425 34.0241 132.481L34.2126 132.551Z" fill="#DAACBE"/>
<path d="M55.8293 143.913C55.928 143.778 55.9008 143.59 55.7652 143.491L55.6031 143.371C55.4676 143.273 55.2795 143.3 55.1808 143.436C55.0821 143.571 55.1094 143.759 55.2449 143.858L55.407 143.977C55.4796 144.029 55.5621 144.046 55.6432 144.03C55.7168 144.016 55.7826 143.976 55.833 143.912L55.8293 143.913Z" fill="#DAACBE"/>
<path d="M64.3515 151.754L64.4929 151.9C64.5647 151.977 64.6667 152.004 64.7639 151.987C64.8225 151.978 64.8754 151.95 64.9191 151.904C65.0395 151.787 65.0397 151.595 64.9233 151.478L64.7819 151.332C64.6645 151.212 64.4724 151.211 64.352 151.329C64.2316 151.446 64.2314 151.638 64.3477 151.755L64.3515 151.754Z" fill="#DAACBE"/>
<path d="M54.6234 142.657C54.4575 142.539 54.2916 142.421 54.1269 142.306C53.9925 142.211 53.8018 142.243 53.7031 142.379C53.6044 142.514 53.6402 142.704 53.7758 142.803C53.9405 142.917 54.1015 143.033 54.2674 143.151L54.4284 143.267C54.4961 143.316 54.5835 143.335 54.6608 143.32C54.7344 143.307 54.8039 143.266 54.8495 143.199C54.9482 143.063 54.9161 142.873 54.7817 142.778L54.6196 142.658L54.6234 142.657Z" fill="#DAACBE"/>
<path d="M59.5793 146.51L59.4262 146.38C59.2694 146.251 59.1163 146.121 58.9595 145.992C58.8304 145.887 58.639 145.903 58.5343 146.032C58.4296 146.161 58.4456 146.353 58.5747 146.457C58.7315 146.586 58.8835 146.713 59.0366 146.843L59.1897 146.973C59.2608 147.034 59.353 147.056 59.4416 147.038C59.5077 147.026 59.5708 146.991 59.6197 146.936C59.7293 146.809 59.7133 146.618 59.5831 146.509L59.5793 146.51Z" fill="#DAACBE"/>
<path d="M60.105 147.76C60.1773 147.824 60.2695 147.846 60.3581 147.828C60.4242 147.816 60.4836 147.782 60.5287 147.728C60.6383 147.601 60.6261 147.409 60.4996 147.299L60.3454 147.165C60.2189 147.056 60.0275 147.072 59.9168 147.195C59.8073 147.321 59.8195 147.514 59.946 147.623L60.0991 147.753L60.105 147.76Z" fill="#DAACBE"/>
<path d="M38.7589 133.731C38.7589 133.731 38.754 133.729 38.7492 133.726C38.5622 133.647 38.3752 133.567 38.192 133.487C38.0379 133.422 37.8595 133.496 37.7938 133.646C37.7292 133.8 37.7988 133.98 37.9528 134.044C38.135 134.121 38.3171 134.198 38.5003 134.278C38.5003 134.278 38.5052 134.281 38.5101 134.283L38.6933 134.364C38.7495 134.388 38.8125 134.394 38.8711 134.385C38.9683 134.368 39.051 134.303 39.0926 134.209C39.1609 134.053 39.0875 133.875 38.9373 133.809L38.7589 133.731Z" fill="#DAACBE"/>
<path d="M71.8767 159.65C71.7582 159.485 71.6371 159.324 71.5149 159.16C71.414 159.027 71.2254 158.997 71.0919 159.098C70.9584 159.199 70.9286 159.388 71.0295 159.521C71.1506 159.681 71.2679 159.843 71.389 160.003L71.5064 160.164C71.5763 160.262 71.6951 160.304 71.8073 160.283C71.8497 160.275 71.8937 160.257 71.9305 160.23C72.0651 160.133 72.0938 159.941 71.9967 159.806L71.8793 159.645L71.8767 159.65Z" fill="#DAACBE"/>
<path d="M44.2488 136.326C44.2488 136.326 44.2488 136.326 44.244 136.324C44.0649 136.23 43.8869 136.14 43.709 136.049C43.5602 135.975 43.3773 136.034 43.303 136.182C43.2287 136.331 43.287 136.514 43.4358 136.588C43.6137 136.678 43.7928 136.772 43.9745 136.861L44.1487 136.953C44.2109 136.983 44.2788 136.992 44.3411 136.981C44.4297 136.963 44.512 136.91 44.5558 136.824C44.6339 136.674 44.5755 136.491 44.4268 136.417L44.2477 136.323L44.2488 136.326Z" fill="#DAACBE"/>
<path d="M45.6251 137.397C45.7043 137.251 45.6497 137.067 45.5036 136.988L45.3246 136.894C45.1785 136.815 44.9945 136.869 44.9152 137.015C44.836 137.162 44.8906 137.346 45.0367 137.425L45.2158 137.519C45.2791 137.553 45.347 137.561 45.4131 137.55C45.4979 137.533 45.5802 137.48 45.6251 137.397Z" fill="#DAACBE"/>
<path d="M50.848 140.469C50.9369 140.328 50.8936 140.14 50.7528 140.051L50.5816 139.943C50.4408 139.854 50.2534 139.897 50.1645 140.038C50.0755 140.179 50.1189 140.366 50.2597 140.455L50.4309 140.564C50.4964 140.606 50.574 140.619 50.6476 140.606C50.7287 140.59 50.8009 140.544 50.848 140.469Z" fill="#DAACBE"/>
<path d="M74.9586 164.169C74.8678 164.028 74.6834 163.985 74.539 164.077C74.3984 164.168 74.3551 164.352 74.447 164.497C74.5542 164.665 74.6625 164.837 74.7659 165.007C74.8354 165.117 74.9602 165.166 75.0773 165.147C75.1111 165.137 75.1487 165.126 75.184 165.107C75.3257 165.02 75.3679 164.832 75.2809 164.69C75.1726 164.518 75.068 164.345 74.9597 164.173L74.9586 164.169Z" fill="#DAACBE"/>
<path d="M68.0839 154.899C68.0839 154.899 68.0817 154.892 68.0768 154.889C67.9467 154.74 67.8165 154.59 67.6864 154.441C67.5753 154.315 67.3848 154.306 67.2573 154.413C67.1309 154.524 67.1183 154.716 67.2294 154.842C67.3644 154.994 67.4945 155.144 67.6258 155.297C67.6269 155.3 67.628 155.304 67.6329 155.307L67.757 155.45C67.8311 155.534 67.939 155.567 68.04 155.55C68.0899 155.539 68.1414 155.52 68.1835 155.483C68.311 155.375 68.3236 155.184 68.2163 155.056L68.085 154.903L68.0839 154.899Z" fill="#DAACBE"/>
<path d="M66.3577 152.993L66.2265 152.84C66.2265 152.84 66.2243 152.833 66.2194 152.83C66.0893 152.681 65.9591 152.531 65.829 152.382C65.7179 152.256 65.5273 152.247 65.3998 152.354C65.2735 152.465 65.2609 152.657 65.372 152.783C65.507 152.935 65.6371 153.085 65.7684 153.238C65.7695 153.241 65.7706 153.245 65.7755 153.248L65.8996 153.391C65.9736 153.475 66.0816 153.508 66.1826 153.491C66.2325 153.48 66.284 153.461 66.3261 153.423C66.4536 153.316 66.4662 153.124 66.3589 152.997L66.3577 152.993Z" fill="#DAACBE"/>
<path d="M69.032 149.449C69.167 149.601 69.2971 149.75 69.4284 149.903C69.4295 149.907 69.4306 149.911 69.4355 149.913L69.5596 150.056C69.6337 150.141 69.7416 150.174 69.8426 150.156C69.8925 150.146 69.944 150.126 69.9861 150.089C70.1136 149.982 70.1262 149.79 70.0189 149.663L69.8876 149.51C69.8876 149.51 69.8854 149.502 69.8805 149.499C69.7504 149.35 69.6203 149.201 69.4901 149.051C69.3791 148.925 69.1885 148.916 69.061 149.024C68.9346 149.135 68.922 149.326 69.0331 149.453L69.032 149.449Z" fill="#DAACBE"/>
<path d="M72.5901 160.635C72.493 160.501 72.3032 160.467 72.1686 160.564C72.034 160.662 72.0004 160.851 72.0976 160.986L72.2149 161.147C72.2848 161.245 72.4047 161.291 72.517 161.27C72.5594 161.261 72.5996 161.245 72.6365 161.218C72.7748 161.12 72.8046 160.931 72.7075 160.797L72.589 160.632L72.5901 160.635Z" fill="#DAACBE"/>
<path d="M74.0844 163.068L73.9659 162.903C73.8688 162.768 73.679 162.735 73.5444 162.832C73.4098 162.929 73.3762 163.119 73.4734 163.253L73.5907 163.415C73.6606 163.512 73.7805 163.559 73.8928 163.538C73.9352 163.529 73.9754 163.513 74.0122 163.486C74.1506 163.387 74.1804 163.199 74.0833 163.064L74.0844 163.068Z" fill="#DAACBE"/>
<path d="M74.2678 167.058C74.1707 166.924 73.9809 166.89 73.8463 166.987C73.7117 167.085 73.6781 167.274 73.7753 167.409L73.8926 167.57C73.9625 167.668 74.0825 167.714 74.1947 167.693C74.2371 167.685 74.2773 167.669 74.3142 167.641C74.4525 167.543 74.4823 167.354 74.3852 167.22L74.2667 167.055L74.2678 167.058Z" fill="#DAACBE"/>
<path d="M76.5071 166.259C76.4099 166.124 76.2202 166.091 76.0856 166.188C75.951 166.285 75.9174 166.475 76.0146 166.609L76.1319 166.771C76.2018 166.868 76.3217 166.915 76.434 166.894C76.4764 166.885 76.5166 166.869 76.5534 166.842C76.6918 166.743 76.7216 166.555 76.6245 166.42L76.506 166.255L76.5071 166.259Z" fill="#DAACBE"/>
<path d="M77.4943 164.466C77.3971 164.332 77.2074 164.298 77.0728 164.395C76.9382 164.493 76.9046 164.682 77.0018 164.817L77.1154 164.979C77.1852 165.077 77.3052 165.123 77.4174 165.102C77.4598 165.094 77.5 165.078 77.5369 165.05C77.6715 164.953 77.705 164.763 77.6079 164.629L77.4894 164.464L77.4943 164.466Z" fill="#DAACBE"/>
<path d="M78.1421 163.139L78.0237 162.973C77.9265 162.839 77.7368 162.805 77.6022 162.902C77.4676 163 77.434 163.189 77.5312 163.324L77.6485 163.485C77.7184 163.583 77.8383 163.629 77.9506 163.608C77.993 163.6 78.0332 163.584 78.07 163.556C78.2084 163.458 78.2382 163.269 78.141 163.135L78.1421 163.139Z" fill="#DAACBE"/>
<path d="M76.3953 159.387L76.2768 159.222C76.1796 159.087 75.9899 159.054 75.8553 159.151C75.7207 159.248 75.6871 159.438 75.7843 159.572L75.9016 159.734C75.9715 159.831 76.0914 159.877 76.2037 159.856C76.2461 159.848 76.2863 159.832 76.3231 159.805C76.4615 159.706 76.4913 159.518 76.3941 159.383L76.3953 159.387Z" fill="#DAACBE"/>
<path d="M72.9599 154.874L73.0772 155.035C73.1471 155.133 73.267 155.179 73.3793 155.158C73.4217 155.149 73.4619 155.133 73.4987 155.106C73.6371 155.008 73.6669 154.819 73.5697 154.685L73.4513 154.52C73.3541 154.385 73.1644 154.351 73.0298 154.449C72.8951 154.546 72.8616 154.736 72.9587 154.87L72.9599 154.874Z" fill="#DAACBE"/>
<path d="M68.6652 159.348C68.568 159.214 68.3782 159.18 68.2436 159.277C68.109 159.374 68.0755 159.564 68.1726 159.699L68.29 159.86C68.3599 159.958 68.4798 160.004 68.592 159.983C68.6345 159.974 68.6746 159.958 68.7115 159.931C68.8499 159.833 68.8797 159.644 68.7825 159.51L68.664 159.344L68.6652 159.348Z" fill="#DAACBE"/>
<path d="M70.6395 158.635C70.7741 158.538 70.8077 158.349 70.7105 158.214L70.5921 158.049C70.4949 157.914 70.3052 157.881 70.1706 157.978C70.036 158.075 70.0024 158.265 70.0995 158.399L70.2131 158.562C70.283 158.66 70.4029 158.706 70.5152 158.685C70.5576 158.676 70.5978 158.66 70.6347 158.633L70.6395 158.635Z" fill="#DAACBE"/>
<path d="M69.0121 153.427C69.082 153.525 69.2019 153.571 69.3141 153.55C69.3565 153.542 69.3967 153.526 69.4336 153.498C69.5682 153.401 69.6018 153.211 69.5046 153.077L69.3861 152.912C69.289 152.777 69.0992 152.744 68.9646 152.841C68.83 152.938 68.7965 153.128 68.8936 153.262L69.0072 153.425L69.0121 153.427Z" fill="#DAACBE"/>
<path d="M49.5489 139.301C49.5489 139.301 49.5441 139.298 49.5392 139.296C49.3692 139.191 49.1954 139.087 49.0264 138.986C48.8819 138.898 48.6956 138.945 48.6116 139.089C48.5237 139.234 48.5708 139.42 48.7143 139.504C48.8881 139.608 49.0581 139.712 49.2319 139.816C49.2319 139.816 49.233 139.82 49.2416 139.821L49.4068 139.923C49.4723 139.965 49.5489 139.975 49.6187 139.963C49.6998 139.947 49.7757 139.9 49.8228 139.824C49.9106 139.68 49.8647 139.497 49.7238 139.408L49.55 139.305L49.5489 139.301Z" fill="#DAACBE"/>
<path d="M68.4087 156.213L68.5362 156.367C68.6076 156.456 68.7193 156.489 68.8241 156.47C68.874 156.459 68.9217 156.441 68.9638 156.404C69.0913 156.296 69.1088 156.107 69.0041 155.975L68.8717 155.818C68.7644 155.691 68.5754 155.673 68.4441 155.782C68.3166 155.889 68.2992 156.078 68.4076 156.209L68.4087 156.213Z" fill="#DAACBE"/>
<path d="M39.981 134.872C40.0744 134.857 40.1583 134.795 40.2036 134.7C40.2731 134.549 40.2034 134.369 40.052 134.299L39.8677 134.215C39.7163 134.146 39.5368 134.215 39.4673 134.367C39.3989 134.522 39.4675 134.698 39.6188 134.767L39.8021 134.848C39.8594 134.876 39.9224 134.881 39.9799 134.868L39.981 134.872Z" fill="#DAACBE"/>
<path d="M57.684 147.972L57.5343 147.853C57.5343 147.853 57.5321 147.846 57.5283 147.847C57.3688 147.722 57.212 147.593 57.0525 147.469C56.9196 147.365 56.7305 147.389 56.6269 147.522C56.5233 147.655 56.5468 147.844 56.6797 147.947C56.8343 148.069 56.9889 148.191 57.1446 148.316C57.1446 148.316 57.1457 148.32 57.1506 148.322L57.3063 148.448C57.3763 148.505 57.4686 148.526 57.5496 148.51C57.6195 148.498 57.6826 148.463 57.7304 148.404C57.8351 148.275 57.8154 148.084 57.6851 147.976L57.684 147.972Z" fill="#DAACBE"/>
<path d="M67.0749 157.185C66.9676 157.057 66.7748 157.041 66.6473 157.148C66.5198 157.256 66.5035 157.448 66.6108 157.576L66.7383 157.73C66.8097 157.819 66.9214 157.852 67.0262 157.833C67.0761 157.822 67.1238 157.804 67.1659 157.767C67.2934 157.659 67.3109 157.47 67.2024 157.339L67.0701 157.182L67.0749 157.185Z" fill="#DAACBE"/>
<path d="M63.9734 153.7C63.8661 153.573 63.6733 153.557 63.5458 153.664C63.4183 153.771 63.402 153.964 63.5093 154.092L63.6368 154.246C63.7082 154.335 63.8199 154.367 63.9247 154.348C63.9746 154.338 64.0223 154.319 64.0644 154.282C64.1919 154.175 64.2094 153.986 64.1009 153.855L63.9686 153.698L63.9734 153.7Z" fill="#DAACBE"/>
<path d="M58.4712 148.613C58.3421 148.508 58.1507 148.524 58.046 148.653C57.9413 148.782 57.9573 148.974 58.0864 149.078L58.2395 149.209C58.3106 149.269 58.4028 149.291 58.4877 149.274C58.5538 149.262 58.6169 149.227 58.6658 149.172C58.7743 149.042 58.7546 148.851 58.6292 148.746L58.4723 148.616L58.4712 148.613Z" fill="#DAACBE"/>
<path d="M73.4762 166.043C73.3679 165.871 73.2596 165.699 73.1561 165.529C73.0691 165.388 72.8809 165.345 72.7392 165.432C72.5986 165.523 72.5553 165.708 72.6423 165.849C72.7495 166.018 72.8578 166.19 72.9613 166.359C73.0307 166.47 73.1555 166.518 73.2715 166.496C73.3053 166.486 73.3429 166.475 73.3782 166.456C73.5199 166.369 73.5621 166.181 73.4751 166.039L73.4762 166.043Z" fill="#DAACBE"/>
<path d="M66.4166 156.412L66.2914 156.265C66.2914 156.265 66.2891 156.258 66.2854 156.259C66.1504 156.107 66.0191 155.954 65.8841 155.802C65.7731 155.675 65.5825 155.666 65.4561 155.778C65.3297 155.889 65.3209 156.079 65.432 156.206C65.5621 156.355 65.6911 156.5 65.8213 156.65L65.8246 156.661L65.9596 156.813C66.0336 156.897 66.1416 156.931 66.2426 156.913C66.2925 156.902 66.344 156.883 66.385 156.842C66.5114 156.731 66.5251 156.543 66.4177 156.416L66.4166 156.412Z" fill="#DAACBE"/>
<path d="M70.7913 161.994C70.6941 161.86 70.5044 161.826 70.3698 161.923C70.2352 162.02 70.2016 162.21 70.2988 162.345L70.4172 162.51C70.4871 162.608 70.607 162.654 70.7193 162.633C70.7617 162.624 70.8019 162.608 70.8387 162.581C70.9733 162.484 71.0069 162.294 70.9097 162.159L70.7913 161.994Z" fill="#DAACBE"/>
<path d="M63.1082 152.85L62.963 152.705C62.8418 152.586 62.6508 152.59 62.5342 152.706C62.4175 152.822 62.4174 153.014 62.5348 153.135L62.6751 153.277C62.7496 153.349 62.8489 153.381 62.945 153.36C63.0036 153.351 63.0565 153.323 63.104 153.276C63.2244 153.159 63.2245 152.967 63.1033 152.847L63.1082 152.85Z" fill="#DAACBE"/>
<path d="M62.2417 151.996L62.0939 151.856C61.9461 151.716 61.802 151.575 61.6554 151.439C61.5353 151.323 61.3405 151.328 61.2261 151.452C61.1106 151.572 61.119 151.766 61.2391 151.881C61.3858 152.017 61.5298 152.159 61.6776 152.299L61.8206 152.436C61.895 152.508 61.9921 152.532 62.0856 152.517C62.1441 152.507 62.2046 152.477 62.2472 152.428C62.3627 152.308 62.3591 152.117 62.239 152.001L62.2417 151.996Z" fill="#DAACBE"/>
<path d="M70.1991 161.169L70.0818 161.007C69.9596 160.844 69.8422 160.682 69.72 160.518C69.6191 160.385 69.4305 160.355 69.297 160.456C69.1635 160.557 69.1337 160.745 69.2346 160.879C69.3557 161.039 69.473 161.2 69.5915 161.366L69.7088 161.527C69.7787 161.625 69.8975 161.667 70.0098 161.646C70.0522 161.637 70.0961 161.62 70.133 161.593C70.2676 161.496 70.2963 161.303 70.1991 161.169Z" fill="#DAACBE"/>
<path d="M36.141 136.527C36.141 136.527 36.1372 136.528 36.1324 136.525C35.9386 136.464 35.7459 136.407 35.5483 136.347C35.3875 136.301 35.2173 136.388 35.1711 136.549C35.1248 136.71 35.2159 136.879 35.3729 136.926C35.5619 136.985 35.7508 137.043 35.9435 137.1C35.9435 137.1 35.9472 137.099 35.9521 137.102L36.1459 137.163C36.195 137.177 36.2445 137.178 36.2918 137.173C36.4003 137.153 36.4921 137.076 36.5243 136.965C36.5754 136.806 36.4881 136.636 36.3262 136.586L36.141 136.527Z" fill="#DAACBE"/>
<path d="M42.9799 139.069C42.8248 139.001 42.6501 139.073 42.5806 139.224C42.5123 139.38 42.5845 139.554 42.7359 139.624L42.9192 139.704C42.9754 139.728 43.0384 139.734 43.0969 139.725C43.1942 139.708 43.2769 139.643 43.3184 139.549C43.3868 139.394 43.3145 139.219 43.1631 139.15L42.9799 139.069Z" fill="#DAACBE"/>
<path d="M52.6025 144.275C52.434 144.161 52.2629 144.053 52.0917 143.944C51.9498 143.851 51.7624 143.895 51.6735 144.035C51.5845 144.176 51.6241 144.365 51.7649 144.454C51.9323 144.563 52.1035 144.672 52.2709 144.782L52.4383 144.891C52.5049 144.937 52.5863 144.949 52.6599 144.936C52.7372 144.921 52.8094 144.875 52.8576 144.804C52.9514 144.665 52.9118 144.477 52.7699 144.384L52.6014 144.271L52.6025 144.275Z" fill="#DAACBE"/>
<path d="M41.8573 138.593C41.8573 138.593 41.8536 138.594 41.8487 138.592C41.6628 138.516 41.4769 138.441 41.2911 138.365C41.1371 138.3 40.9597 138.378 40.8951 138.532C40.8305 138.686 40.9077 138.863 41.0617 138.928C41.2476 139.003 41.4335 139.079 41.6193 139.154C41.6193 139.154 41.6231 139.153 41.628 139.156L41.8052 139.23C41.8614 139.254 41.9196 139.257 41.9781 139.248C42.0753 139.231 42.1618 139.165 42.2023 139.067C42.2669 138.913 42.1935 138.735 42.0395 138.67L41.8525 138.591L41.8573 138.593Z" fill="#DAACBE"/>
<path d="M37.2921 136.896C37.134 136.845 36.9626 136.929 36.9078 137.088C36.8566 137.246 36.9402 137.417 37.0995 137.472L37.2895 137.534C37.3398 137.552 37.393 137.553 37.4392 137.543C37.5439 137.524 37.6357 137.448 37.6728 137.339C37.7239 137.181 37.6404 137.009 37.4811 136.955L37.2899 136.889L37.2921 136.896Z" fill="#DAACBE"/>
<path d="M53.616 144.95C53.4778 144.856 53.2882 144.892 53.1944 145.031C53.1006 145.169 53.1364 145.358 53.2746 145.452L53.4393 145.567C53.5071 145.616 53.5885 145.629 53.6658 145.614C53.7432 145.599 53.8127 145.558 53.8609 145.486C53.9547 145.348 53.9189 145.159 53.7807 145.065L53.616 144.95Z" fill="#DAACBE"/>
<path d="M48.4348 141.757C48.2887 141.677 48.1036 141.728 48.0255 141.878C47.9463 142.024 47.9971 142.209 48.147 142.287L48.3234 142.386C48.3867 142.42 48.4595 142.432 48.5255 142.42C48.6104 142.403 48.6889 142.351 48.7349 142.272C48.8179 142.125 48.7633 141.941 48.6172 141.862L48.4408 141.763L48.4348 141.757Z" fill="#DAACBE"/>
<path d="M47.3797 141.188C47.3797 141.188 47.37 141.182 47.3651 141.18C47.186 141.086 47.007 140.992 46.8241 140.899C46.6743 140.821 46.4925 140.883 46.417 141.028C46.3389 141.178 46.3973 141.361 46.5461 141.435C46.7203 141.526 46.8933 141.614 47.0675 141.705C47.0687 141.709 47.0773 141.711 47.0822 141.713L47.2575 141.808C47.3208 141.843 47.3887 141.851 47.4547 141.84C47.5433 141.821 47.6219 141.77 47.6668 141.687C47.746 141.541 47.6914 141.357 47.5453 141.277L47.3808 141.191L47.3797 141.188Z" fill="#DAACBE"/>
<path d="M47.6031 134.701C47.6909 134.557 47.6438 134.37 47.5004 134.286C46.9865 133.973 46.4565 133.661 45.9325 133.354C45.789 133.27 45.6028 133.317 45.5198 133.465C45.4358 133.608 45.4829 133.794 45.6301 133.877C46.153 134.18 46.6743 134.491 47.1882 134.804C47.2537 134.846 47.3303 134.856 47.4001 134.843C47.4812 134.827 47.5571 134.78 47.6031 134.701Z" fill="#DAACBE"/>
<path d="M64.3682 148.353C64.4845 148.47 64.674 148.475 64.7917 148.363C64.6751 148.479 64.6738 148.667 64.7913 148.788C64.8848 148.882 64.9757 148.982 65.0692 149.077C65.141 149.154 65.2479 149.183 65.3451 149.167C65.4036 149.157 65.4529 149.131 65.4976 149.089C65.618 148.971 65.6231 148.782 65.5094 148.66C65.4147 148.562 65.3212 148.467 65.2266 148.368C65.1091 148.248 64.9245 148.245 64.8019 148.355C64.9185 148.239 64.9187 148.047 64.8024 147.93L64.661 147.784C64.5435 147.664 64.3514 147.664 64.2348 147.78C64.1144 147.898 64.1142 148.09 64.2317 148.21L64.3731 148.356L64.3682 148.353Z" fill="#DAACBE"/>
<path d="M36.4936 129.194L36.8612 129.359C36.9185 129.387 36.9815 129.392 37.0401 129.383C37.1335 129.368 37.2174 129.306 37.2627 129.211C37.3322 129.059 37.2663 128.879 37.1111 128.81L36.7424 128.642C36.5911 128.573 36.4115 128.642 36.342 128.794C36.4104 128.638 36.3419 128.463 36.1867 128.394L35.9986 128.311C35.8484 128.245 35.6677 128.311 35.5993 128.466C35.531 128.622 35.5995 128.797 35.7546 128.866L35.9379 128.946C35.9941 128.97 36.0571 128.976 36.1157 128.967C36.2091 128.951 36.2956 128.885 36.3372 128.791C36.2677 128.942 36.3373 129.122 36.4887 129.191L36.4936 129.194Z" fill="#DAACBE"/>
<path d="M71.1198 155.694C71.2533 155.593 71.2783 155.402 71.1736 155.269L70.9265 154.946C70.8267 154.817 70.6392 154.791 70.5084 154.887C70.637 154.783 70.6544 154.594 70.5546 154.464L70.4297 154.305C70.3251 154.173 70.1349 154.152 70.0025 154.256C69.8702 154.361 69.849 154.551 69.9537 154.684L70.0785 154.843C70.1783 154.972 70.3647 154.995 70.4956 154.899C70.3707 155.001 70.3484 155.187 70.4482 155.317L70.6942 155.636C70.7667 155.729 70.8806 155.769 70.9891 155.749C71.0353 155.739 71.0792 155.722 71.1187 155.69L71.1198 155.694Z" fill="#DAACBE"/>
<path d="M43.9031 132.821C43.9879 132.804 44.0665 132.752 44.1114 132.67C44.0321 132.816 44.083 133.001 44.2291 133.08L44.582 133.278C44.6464 133.316 44.718 133.323 44.7841 133.312C44.8689 133.295 44.9475 133.243 44.9935 133.164C45.0765 133.016 45.0256 132.831 44.8795 132.752L44.5267 132.555C44.3794 132.472 44.1954 132.526 44.1151 132.669C44.1943 132.522 44.1435 132.337 43.9936 132.259L43.8172 132.16C43.6711 132.081 43.4871 132.136 43.4079 132.282C43.3286 132.428 43.3795 132.613 43.5294 132.691L43.7047 132.786C43.768 132.821 43.8407 132.832 43.9068 132.82L43.9031 132.821Z" fill="#DAACBE"/>
<path d="M72.4853 158.067C72.5552 158.165 72.6751 158.211 72.7874 158.19C72.8298 158.182 72.87 158.166 72.9068 158.138C73.0414 158.041 73.075 157.851 72.9778 157.717C72.6262 157.22 72.266 156.723 71.9064 156.241C71.8055 156.107 71.6169 156.078 71.4834 156.179C71.3499 156.279 71.3201 156.468 71.421 156.602C71.7757 157.081 72.1348 157.575 72.4853 158.067Z" fill="#DAACBE"/>
<path d="M76.7137 163.407C76.6431 163.293 76.5714 163.176 76.5008 163.062C76.4138 162.92 76.2331 162.876 76.0903 162.959C76.2271 162.869 76.2666 162.686 76.1796 162.544L76.0713 162.372C75.9806 162.231 75.7923 162.189 75.6555 162.279C75.5149 162.37 75.4716 162.554 75.5624 162.695L75.6696 162.863C75.7555 163.001 75.9362 163.046 76.0801 162.966C75.9433 163.056 75.9026 163.235 75.9896 163.377C76.0602 163.491 76.1308 163.605 76.1976 163.72C76.2633 163.831 76.393 163.882 76.5127 163.859C76.5465 163.849 76.5803 163.839 76.6157 163.82C76.7574 163.733 76.8044 163.548 76.7174 163.406L76.7137 163.407Z" fill="#DAACBE"/>
<path d="M66.3385 149.542C66.2248 149.421 66.0342 149.412 65.9089 149.527C65.7874 149.64 65.7786 149.831 65.8934 149.956C66.3026 150.399 66.714 150.848 67.1093 151.299C67.1822 151.38 67.2902 151.413 67.3911 151.395C67.4459 151.387 67.4963 151.364 67.5373 151.323C67.6637 151.212 67.6725 151.022 67.5614 150.895C67.1624 150.446 66.7499 149.992 66.3347 149.543L66.3385 149.542Z" fill="#DAACBE"/>
<path d="M30.1777 125.953C30.0222 125.897 29.8449 125.974 29.79 126.133C29.7303 126.29 29.8112 126.466 29.9705 126.521C30.536 126.733 31.1065 126.948 31.6656 127.166C31.7207 127.186 31.7751 127.191 31.8299 127.183C31.9309 127.165 32.0163 127.095 32.0556 126.993C32.1153 126.836 32.0393 126.663 31.8826 126.603C31.3197 126.386 30.7482 126.168 30.1777 125.953Z" fill="#DAACBE"/>
<path d="M61.04 145.141C61.1134 145.209 61.2105 145.233 61.2991 145.215C61.3614 145.205 61.4208 145.171 61.4671 145.121C61.5777 144.998 61.5693 144.804 61.4466 144.694C60.9979 144.283 60.5417 143.875 60.0851 143.48C59.9586 143.37 59.7661 143.382 59.6566 143.509C59.547 143.635 59.5592 143.828 59.6857 143.937C60.1374 144.33 60.5887 144.736 61.0363 145.142L61.04 145.141Z" fill="#DAACBE"/>
<path d="M39.7814 130.678C39.8711 130.664 39.955 130.602 39.9988 130.516C40.0731 130.367 40.011 130.185 39.8622 130.111C39.322 129.846 38.7682 129.577 38.2178 129.32C38.0664 129.25 37.8847 129.313 37.8152 129.464C37.7457 129.615 37.8078 129.797 37.9592 129.867C38.5059 130.125 39.0536 130.387 39.5939 130.652C39.6561 130.683 39.7191 130.688 39.7814 130.678Z" fill="#DAACBE"/>
<path d="M52.8342 138.146C52.7355 138.281 52.7676 138.472 52.9069 138.57C53.3948 138.919 53.8886 139.275 54.3712 139.635C54.4401 139.688 54.5264 139.703 54.6086 139.691C54.6821 139.677 54.7479 139.637 54.7946 139.574C54.8933 139.439 54.8661 139.251 54.7343 139.151C54.2469 138.789 53.7519 138.429 53.2592 138.077C53.1236 137.978 52.9329 138.01 52.8354 138.15L52.8342 138.146Z" fill="#DAACBE"/>
<path d="M52.2631 137.376L51.9298 137.148C51.7917 137.054 51.601 137.086 51.5071 137.224C51.4133 137.362 51.4492 137.552 51.5836 137.647L51.9169 137.875C51.9846 137.924 52.066 137.937 52.1433 137.922C52.2207 137.907 52.2902 137.866 52.3384 137.795C52.4323 137.656 52.4013 137.469 52.262 137.372L52.2631 137.376Z" fill="#DAACBE"/>
<path d="M57.8098 141.94C57.7051 142.069 57.7211 142.261 57.8502 142.365L58.0071 142.495C58.0782 142.555 58.1704 142.577 58.2552 142.56C58.3213 142.548 58.3882 142.512 58.4323 142.454C58.5369 142.325 58.521 142.134 58.3918 142.029L58.235 141.9C58.1059 141.795 57.9145 141.811 57.8098 141.94Z" fill="#DAACBE"/>
<path d="M58.4333 142.458C58.3238 142.585 58.3408 142.78 58.47 142.884L58.7761 143.145C58.8472 143.206 58.9395 143.227 59.0292 143.213C59.0953 143.201 59.1584 143.166 59.2036 143.112C59.3131 142.986 59.2972 142.794 59.1707 142.685L58.8608 142.425C58.7305 142.317 58.5429 142.332 58.4344 142.462L58.4333 142.458Z" fill="#DAACBE"/>
<path d="M51.0855 137.305C51.1521 137.35 51.2346 137.367 51.312 137.352C51.3893 137.337 51.4588 137.296 51.5071 137.224C51.6009 137.086 51.565 136.897 51.4269 136.803L51.2584 136.689C51.1202 136.596 50.9306 136.631 50.8379 136.773C50.7441 136.912 50.7799 137.101 50.9181 137.195L51.0866 137.308L51.0855 137.305Z" fill="#DAACBE"/>
<defs>
<linearGradient id="paint0_linear_13715_972" x1="66.001" y1="96.306" x2="151.692" y2="96.306" gradientUnits="userSpaceOnUse">
<stop stop-color="#C27790"/>
<stop offset="1" stop-color="#DF9CB7"/>
</linearGradient>
<clipPath id="clip0_13715_972">
<rect width="91.9267" height="176.134" fill="white" transform="translate(63.1553)"/>
</clipPath>
<clipPath id="clip1_13715_972">
<rect width="86.3129" height="158.591" fill="white" transform="translate(65.962 17.5432)"/>
</clipPath>
</defs>
</svg>
