<svg width="18" height="18" viewBox="0 0 18 18" fill="none" xmlns="http://www.w3.org/2000/svg">
<path d="M16.706 10.6304C17.2223 9.35893 17.4825 7.99147 17.4825 6.52587C17.4825 4.48 16.8468 2.88 15.5753 1.728C14.3039 0.576 12.6036 0 10.4703 0C8.87668 0 7.43668 0.279467 6.15668 0.840533C4.96841 1.35893 3.94015 2.0672 3.05908 2.94613C3.09322 3.11467 3.14015 3.26827 3.19135 3.39627C3.62868 4.48 4.84042 5.0368 5.67242 5.5872C6.42122 6.08213 6.97588 6.93333 6.05641 7.648C5.99881 7.6928 5.88575 7.7632 5.71508 7.85493C5.64468 7.89333 5.64468 7.93387 5.71508 7.97013C5.91135 8.0768 6.15028 8.2176 6.42548 8.38827C7.63295 9.13707 8.78281 10.2891 8.74015 11.8229C8.70815 12.9899 8.33481 13.9008 7.37268 14.5856C6.81161 14.9845 6.05428 15.1872 5.62335 15.424C5.19455 15.6608 4.98975 16.0405 5.00895 16.5653C5.01108 16.6485 5.00895 16.7339 5.00041 16.8171C5.64041 16.9536 6.32948 17.0261 7.07615 17.0261C8.58441 17.0261 9.96895 16.7573 11.2276 16.2176C12.4884 15.68 13.5871 14.9312 14.5236 13.9712C15.4601 13.0133 16.1876 11.8976 16.7039 10.6261L16.706 10.6304Z" fill="#D87AA1"/>
<path d="M0.349867 7.72906C0.1216 8.6272 0 9.55946 0 10.5323C0 11.5051 0.138667 12.2859 0.4032 13.0283C1.07733 12.1216 1.04533 11.0229 0.925866 9.94347C0.840533 9.17333 0.6592 8.43733 0.349867 7.72906Z" fill="#D87AA1"/>
</svg>
