<svg width="32" height="32" viewBox="0 0 32 32" fill="none" xmlns="http://www.w3.org/2000/svg">
<path d="M16 25.3333C18.2091 25.3333 20 23.5424 20 21.3333C20 19.1242 18.2091 17.3333 16 17.3333C13.7909 17.3333 12 19.1242 12 21.3333C12 23.5424 13.7909 25.3333 16 25.3333Z" fill="#FD8CBB"/>
<path d="M8.66667 26.6666H6.66667C5.19391 26.6666 4 25.4727 4 24V5.33329C4 3.86053 5.19391 2.66663 6.66667 2.66663H25.3333C26.8061 2.66663 28 3.86053 28 5.33329V24C28 25.4727 26.8061 26.6666 25.3333 26.6666H23.3333M16 25.3333C18.2091 25.3333 20 23.5424 20 21.3333C20 19.1242 18.2091 17.3333 16 17.3333C13.7909 17.3333 12 19.1242 12 21.3333C12 23.5424 13.7909 25.3333 16 25.3333ZM16 25.3333L16.0286 25.333L11.7716 29.59L8.00033 25.8188L12.0262 21.7929M16 25.3333L20.2571 29.59L24.0283 25.8188L20.0024 21.7929M12 7.99996H20M9.33333 12.6666H22.6667" stroke="#372035" stroke-width="2" stroke-linecap="round" stroke-linejoin="round"/>
</svg>
