<svg width="32" height="32" viewBox="0 0 32 32" fill="none" xmlns="http://www.w3.org/2000/svg">
<path d="M15.0693 28.8198C15.3645 28.992 15.5121 29.0781 15.7204 29.1228C15.8821 29.1575 16.1179 29.1575 16.2796 29.1228C16.4879 29.0781 16.6354 28.992 16.9306 28.8198C19.528 27.3045 26.6666 22.5446 26.6666 16V9.62346C26.6666 8.55744 26.6666 8.02444 26.4923 7.56626C26.3383 7.16151 26.088 6.80036 25.7631 6.51403C25.3953 6.18991 24.8962 6.00276 23.8981 5.62845L16.749 2.94756C16.4718 2.84361 16.3333 2.79163 16.1907 2.77103C16.0642 2.75276 15.9358 2.75276 15.8093 2.77103C15.6667 2.79163 15.5281 2.84361 15.2509 2.94756L8.10185 5.62845C7.10371 6.00276 6.60464 6.18991 6.23686 6.51403C5.91196 6.80036 5.66168 7.16151 5.50766 7.56626C5.33331 8.02444 5.33331 8.55744 5.33331 9.62346V16C5.33331 22.5446 12.4719 27.3045 15.0693 28.8198Z" fill="#FD8CBB"/>
<path d="M12 15.3333L14.6666 18L20.6666 12M26.6666 16C26.6666 22.5446 19.528 27.3045 16.9306 28.8198C16.6354 28.992 16.4879 29.0781 16.2796 29.1228C16.1179 29.1575 15.8821 29.1575 15.7204 29.1228C15.5121 29.0781 15.3645 28.992 15.0693 28.8198C12.4719 27.3045 5.33331 22.5446 5.33331 16V9.62346C5.33331 8.55744 5.33331 8.02444 5.50766 7.56626C5.66168 7.16151 5.91196 6.80036 6.23686 6.51403C6.60464 6.18991 7.10371 6.00276 8.10185 5.62845L15.2509 2.94756C15.5281 2.84361 15.6667 2.79163 15.8093 2.77103C15.9358 2.75276 16.0642 2.75276 16.1907 2.77103C16.3333 2.79163 16.4718 2.84361 16.749 2.94756L23.8981 5.62845C24.8962 6.00276 25.3953 6.18991 25.7631 6.51403C26.088 6.80036 26.3383 7.16151 26.4923 7.56626C26.6666 8.02444 26.6666 8.55744 26.6666 9.62346V16Z" stroke="#372035" stroke-width="2" stroke-linecap="round" stroke-linejoin="round"/>
</svg>
