<svg width="298" height="298" viewBox="0 0 298 298" fill="none" xmlns="http://www.w3.org/2000/svg">
<g filter="url(#filter0_d_13715_563)">
<path d="M213.053 136.899C212.935 134.616 212.7 132.333 212.269 130.05C212.269 129.896 212.229 129.741 212.19 129.586C211.837 127.69 211.406 125.756 210.935 123.86C210.269 121.229 209.485 118.636 208.465 116.083C207.642 113.955 206.701 111.904 205.603 109.854C204.976 108.693 204.309 107.571 203.603 106.487C202.27 104.475 200.78 102.618 199.173 100.877C196.232 97.7432 192.86 95.0348 189.409 92.5585C187.959 91.5139 186.508 90.5079 185.057 89.5019C178.039 84.7042 170.51 81.0285 162.276 79.2874C154.905 77.7011 147.22 76.6177 139.652 77.4689C138.751 77.585 137.888 77.7011 136.986 77.8558C134.594 78.2814 132.242 78.9779 129.968 79.9065C126.988 81.1059 124.086 82.6149 121.224 84.2786C119.264 85.4006 117.342 86.6388 115.382 87.8769C114.99 88.1477 114.598 88.3799 114.205 88.612C112.127 89.9275 110.088 91.2817 108.167 92.7133C106.481 93.9514 104.834 95.2282 103.266 96.5824C101.345 98.2848 99.5411 100.065 97.8943 101.961C97.0317 102.928 96.2475 103.972 95.5025 105.017C95.1889 105.443 94.9144 105.868 94.6399 106.294C93.346 108.228 92.1697 110.202 91.1111 112.252C90.3269 113.8 89.5819 115.348 88.9153 116.934C88.0527 118.985 87.2685 121.113 86.6412 123.241C86.1707 124.75 85.7786 126.259 85.4649 127.806C85.4649 127.922 85.3865 128.077 85.3865 128.193C84.916 130.437 84.6415 132.681 84.5631 134.964C84.4847 136.744 84.5239 138.524 84.6023 140.342C84.7591 142.741 85.0336 145.179 85.3865 147.616C85.6217 149.241 85.8962 150.866 86.2099 152.453C86.2491 152.724 86.3275 152.956 86.3667 153.226C86.8372 155.741 87.3862 158.295 88.0919 160.771C88.6409 162.783 89.3074 164.756 90.0524 166.73C91.1503 169.554 92.5226 172.34 94.2086 175.01C94.3262 175.203 94.4439 175.397 94.5615 175.59C95.9338 177.679 97.3062 179.73 98.7569 181.742C102.364 186.694 106.324 191.221 111.147 194.51C118.166 199.308 126.753 201.165 134.987 202.906C143.181 204.686 151.807 206.659 160.237 205.189C162.904 204.725 165.492 203.873 168.001 202.79C170.197 201.823 172.392 200.662 174.549 199.424C177.098 197.954 179.607 196.329 182.156 194.704C182.43 194.549 182.705 194.355 182.979 194.201C184.587 193.156 186.233 192.15 187.802 191.067C190.154 189.48 192.429 187.855 194.546 186.075C196.075 184.799 197.526 183.483 198.859 182.052C200.035 180.775 201.172 179.459 202.152 178.066C202.545 177.525 202.897 176.944 203.25 176.364C204.191 174.894 205.015 173.346 205.76 171.798C206.74 169.786 207.563 167.658 208.308 165.53C208.857 163.905 209.367 162.28 209.798 160.655C210.347 158.721 210.779 156.786 211.21 154.813C211.249 154.581 211.328 154.349 211.367 154.116C211.72 152.453 212.033 150.75 212.269 149.048C212.621 146.804 212.817 144.521 212.935 142.238C213.014 140.458 213.014 138.679 212.935 136.899H213.053Z" fill="url(#paint0_linear_13715_563)" shape-rendering="crispEdges"/>
<path d="M139.447 75.6432C147.309 74.7589 155.223 75.8897 162.663 77.4908H162.662C171.188 79.2945 178.935 83.0914 186.094 87.985L186.104 87.9918C187.553 88.9963 189.017 90.0113 190.483 91.067H190.482C193.763 93.4215 197.024 96.0179 199.935 99.0153L200.513 99.6198L200.517 99.6256L200.522 99.6305C202.188 101.434 203.741 103.369 205.135 105.472L205.142 105.484C205.693 106.329 206.22 107.196 206.723 108.085L207.22 108.98L207.222 108.986C208.352 111.096 209.323 113.21 210.172 115.402L210.556 116.396C211.304 118.388 211.92 120.392 212.455 122.403L212.717 123.409L212.719 123.418C213.193 125.331 213.63 127.29 213.99 129.218C214.023 129.348 214.075 129.574 214.096 129.835C214.531 132.175 214.769 134.5 214.888 136.804L214.987 138.736H214.825C214.841 139.93 214.823 141.125 214.77 142.319V142.333C214.651 144.655 214.45 147.006 214.084 149.334C213.842 151.078 213.521 152.813 213.164 154.498L213.163 154.497C213.13 154.669 213.092 154.825 213.069 154.916C213.036 155.045 213.026 155.088 213.021 155.119L213.014 155.162L213.005 155.205C212.574 157.176 212.132 159.162 211.566 161.157L211.565 161.156C211.122 162.823 210.603 164.48 210.05 166.119L210.046 166.128L210.043 166.137C209.287 168.296 208.437 170.495 207.415 172.594C206.649 174.185 205.791 175.803 204.798 177.354C204.461 177.908 204.082 178.53 203.654 179.123L203.655 179.124C202.607 180.613 201.408 181.996 200.21 183.297L200.204 183.303C198.803 184.808 197.291 186.175 195.727 187.481C193.544 189.316 191.216 190.979 188.846 192.578C187.252 193.678 185.526 194.736 183.98 195.741L183.931 195.773L183.882 195.801C183.793 195.851 183.696 195.912 183.552 196.004C183.442 196.073 183.296 196.162 183.142 196.252L183.143 196.253C180.613 197.866 178.061 199.519 175.468 201.015L175.464 201.017C173.273 202.275 171.017 203.469 168.742 204.471L168.729 204.477C166.122 205.603 163.393 206.503 160.553 206.998L160.554 206.999C151.702 208.542 142.701 206.462 134.596 204.702V204.701C126.427 202.973 117.476 201.062 110.11 196.027V196.026C105.036 192.565 100.93 187.847 97.2713 182.824L97.2664 182.817C95.7922 180.772 94.4028 178.695 93.0262 176.599L93.0086 176.572L92.992 176.545C92.8744 176.351 92.7561 176.158 92.6385 175.964V175.964C90.8925 173.195 89.4733 170.312 88.3397 167.395L88.3367 167.387L88.3338 167.379C87.574 165.366 86.8871 163.336 86.3192 161.255V161.254C85.5949 158.709 85.0351 156.102 84.5604 153.564L84.5535 153.527L84.5486 153.49C84.5421 153.445 84.5304 153.393 84.4988 153.258C84.4755 153.158 84.4401 152.995 84.409 152.808L84.407 152.809C84.0867 151.189 83.8075 149.533 83.5682 147.88C83.2099 145.405 82.929 142.919 82.7684 140.463L82.7664 140.422C82.6871 138.581 82.6455 136.741 82.7274 134.883C82.809 132.535 83.0899 130.227 83.5672 127.922C83.5793 127.826 83.5946 127.749 83.6063 127.697C83.6145 127.661 83.6254 127.625 83.6336 127.594L83.6639 127.441C83.9888 125.838 84.3945 124.277 84.8787 122.721L85.1297 121.895C85.7323 119.969 86.4482 118.06 87.2215 116.221C87.9114 114.58 88.6781 112.989 89.4725 111.422L89.4783 111.41C90.5713 109.293 91.784 107.259 93.1131 105.272C93.3748 104.866 93.6681 104.411 94.0067 103.95L94.5897 103.145C95.1867 102.336 95.8273 101.518 96.5233 100.738C98.2276 98.7776 100.084 96.9472 102.048 95.2076L102.065 95.192C103.682 93.7964 105.369 92.4881 107.08 91.2321C109.05 89.7647 111.128 88.3851 113.222 87.0592L113.246 87.0446L113.269 87.0309C113.669 86.7944 114.007 86.5935 114.338 86.3649L114.369 86.3434L114.4 86.3229C116.336 85.1004 118.299 83.8359 120.301 82.6901L121.395 82.0631C123.591 80.823 125.831 79.6709 128.128 78.6823L129.282 78.2018C131.666 77.2291 134.14 76.4957 136.664 76.0465L136.676 76.0446C137.617 75.8829 138.512 75.7627 139.418 75.6461L139.432 75.6451L139.447 75.6432Z" stroke="white" stroke-opacity="0.15" stroke-width="3.6748" shape-rendering="crispEdges"/>
</g>
<defs>
<filter id="filter0_d_13715_563" x="-7.62939e-06" y="3.76701e-05" width="297.767" height="297.57" filterUnits="userSpaceOnUse" color-interpolation-filters="sRGB">
<feFlood flood-opacity="0" result="BackgroundImageFix"/>
<feColorMatrix in="SourceAlpha" type="matrix" values="0 0 0 0 0 0 0 0 0 0 0 0 0 0 0 0 0 0 127 0" result="hardAlpha"/>
<feOffset dy="7.34959"/>
<feGaussianBlur stdDeviation="40.4228"/>
<feComposite in2="hardAlpha" operator="out"/>
<feColorMatrix type="matrix" values="0 0 0 0 1 0 0 0 0 0.314397 0 0 0 0 0.598849 0 0 0 0.75 0"/>
<feBlend mode="normal" in2="BackgroundImageFix" result="effect1_dropShadow_13715_563"/>
<feBlend mode="normal" in="SourceGraphic" in2="effect1_dropShadow_13715_563" result="shape"/>
</filter>
<linearGradient id="paint0_linear_13715_563" x1="200.277" y1="77.0851" x2="108.407" y2="192.841" gradientUnits="userSpaceOnUse">
<stop stop-color="#FD8CBB"/>
<stop offset="1" stop-color="#DC5F92"/>
</linearGradient>
</defs>
</svg>
