<svg width="158" height="145" viewBox="0 0 158 145" fill="none" xmlns="http://www.w3.org/2000/svg">
<path d="M11.9893 23.8968L28.4104 25.5534" stroke="#DC5F92" stroke-width="2" stroke-linecap="round" stroke-linejoin="round"/>
<path d="M145.3 23.8968L128.879 25.5534" stroke="#DC5F92" stroke-width="2" stroke-linecap="round" stroke-linejoin="round"/>
<path d="M28.9971 1.00012L40.8995 8.47851" stroke="#DC5F92" stroke-width="2" stroke-linecap="round" stroke-linejoin="round"/>
<path d="M128.293 1.00012L116.391 8.47851" stroke="#DC5F92" stroke-width="2" stroke-linecap="round" stroke-linejoin="round"/>
<path d="M69.4435 141.868L30.8491 126.43C23.0158 123.297 19.099 121.73 16.8871 118.463C14.6753 115.196 14.6753 110.978 14.6753 102.541V87.799L11.2716 86.4376C5.32679 84.0597 2.3544 82.8707 1.33682 80.2867C0.319241 77.7027 1.68283 74.8062 4.41001 69.0134L16.4409 43.4583L16.9449 42.4553C17.2267 41.7519 18.4897 41.2467 20.7337 40.3491L20.7337 40.3491L69.4435 20.8653C74.1623 18.9778 76.5217 18.034 78.9992 18.034C81.4767 18.034 83.8377 18.9782 88.5565 20.8658L137.266 40.3496C139.51 41.2472 140.773 41.7523 141.055 42.4558L141.559 43.4588L153.59 69.0139C156.317 74.8067 157.681 77.7031 156.663 80.2872C155.646 82.8712 152.673 84.0601 146.728 86.438L143.325 87.7995V102.542C143.325 110.978 143.325 115.197 141.113 118.464C138.901 121.731 134.984 123.297 127.151 126.431L88.5565 141.868C84.4487 143.512 78.9992 144.066 78.9992 139.442C78.9992 144.066 73.4646 143.476 69.4435 141.868Z" fill="#FFE6F1"/>
<path d="M78.9992 67.5109C76.5217 67.5109 74.1623 66.5671 69.4435 64.6796L20.7337 45.1958C18.1673 44.1693 16.8841 43.656 16.8841 42.7724C16.8841 42.6615 16.9044 42.5563 16.9449 42.4553M78.9992 67.5109L67.796 95.3894C65.4938 100.915 64.3427 103.677 61.9111 104.699C59.4795 105.721 56.7006 104.609 51.143 102.386L11.2716 86.4376C5.32679 84.0597 2.3544 82.8707 1.33682 80.2867C0.319241 77.7027 1.68283 74.8062 4.41001 69.0134L16.4409 43.4583L16.9449 42.4553M78.9992 67.5109C81.4767 67.5109 83.8377 66.5676 88.5565 64.6801L137.266 45.1963C139.833 44.1697 141.116 43.6565 141.116 42.7729C141.116 42.6619 141.096 42.5568 141.055 42.4558M78.9992 67.5109L90.204 95.3899C92.5062 100.915 93.6573 103.678 96.0889 104.699C98.5205 105.721 101.299 104.61 106.857 102.387L143.325 87.7995M78.9992 67.5109C78.9992 67.5109 78.9992 134.817 78.9992 139.442M16.9449 42.4553C17.2267 41.7519 18.4897 41.2467 20.7337 40.3491L69.4435 20.8653C74.1623 18.9778 76.5217 18.034 78.9992 18.034C81.4767 18.034 83.8377 18.9782 88.5566 20.8658L137.266 40.3496C139.51 41.2472 140.773 41.7523 141.055 42.4558M143.325 87.7995V102.542C143.325 110.978 143.325 115.197 141.113 118.464C138.901 121.731 134.984 123.297 127.151 126.431L88.5565 141.868C84.4487 143.512 78.9992 144.066 78.9992 139.442M143.325 87.7995L146.728 86.438C152.673 84.0601 155.646 82.8712 156.663 80.2872C157.681 77.7031 156.317 74.8067 153.59 69.0139L141.559 43.4588L141.055 42.4558M78.9992 139.442C78.9992 144.066 73.4646 143.476 69.4435 141.868L30.8491 126.43C23.0158 123.297 19.099 121.73 16.8871 118.463C14.6753 115.196 14.6753 110.978 14.6753 102.541V87.799" stroke="#DC5F92" stroke-width="2" stroke-linecap="round"/>
</svg>
