<svg width="108" height="40" viewBox="0 0 108 40" fill="none" xmlns="http://www.w3.org/2000/svg">
<g clip-path="url(#clip0_13715_2475)">
<path d="M90.4383 3.14453C89.7194 2.02453 88.5482 1.4656 86.9247 1.4656C85.7685 1.4656 84.6997 1.7408 83.7205 2.2912C82.7413 2.8416 81.8773 3.63947 81.1306 4.6848C80.9429 3.63947 80.5013 2.8416 79.8015 2.2912C79.1018 1.7408 78.193 1.4656 77.073 1.4656C75.8783 1.4656 74.7925 1.78347 73.8133 2.41707C72.8341 3.05067 71.9807 3.9744 71.2533 5.18827C71.3834 4.77227 71.4965 4.36693 71.5925 3.97013C71.8719 2.80747 70.9973 1.6896 69.8026 1.6896H67.7567L67.4624 3.74613C67.36 4.46507 67.2149 5.35467 67.0293 6.4192L65.6917 13.9947C65.5125 15.008 66.2911 15.936 67.3194 15.936H68.1685C69.0261 15.936 69.7621 15.3237 69.9306 14.4832C70.3295 12.4949 70.769 10.88 71.2533 9.64053C71.8506 8.11093 72.4991 7.02933 73.1989 6.3936C73.8986 5.76 74.6304 5.44213 75.3962 5.44213C76.5162 5.44213 76.9258 6.28267 76.6271 7.9616L75.5455 14.1248C75.3791 15.072 76.1088 15.9381 77.0687 15.9381H77.8773C78.8181 15.9381 79.6202 15.2704 79.8079 14.3488C80.2005 12.4224 80.6378 10.8523 81.1178 9.64053C81.7237 8.11093 82.3765 7.02933 83.0762 6.3936C83.7759 5.76 84.5077 5.44213 85.2735 5.44213C85.8325 5.44213 86.2293 5.6512 86.4639 6.07147C86.6965 6.49173 86.7114 7.12107 86.5066 7.9616L85.5551 12.2432C85.393 12.9131 85.2735 13.5851 85.201 14.2549C85.1029 15.1509 85.7941 15.936 86.6943 15.936H89.4741C89.4741 15.2832 89.5061 14.6347 89.5722 13.9904C89.6383 13.3461 89.745 12.6891 89.8943 12.0171L90.8181 7.87413C91.2831 5.84107 91.1594 4.26453 90.4405 3.14453H90.4383Z" fill="#D87AA1"/>
<path d="M40.354 14.4896C40.4564 15.2896 41.1306 15.936 41.986 15.936H42.8351C43.6927 15.936 44.4287 15.3237 44.5972 14.4811C44.9962 12.4928 45.4356 10.8779 45.9199 9.6384C46.5172 8.1088 47.1658 7.0272 47.8655 6.39147C48.5652 5.75787 49.297 5.44 50.0628 5.44C51.1828 5.44 51.5925 6.28053 51.2938 7.95947L50.2122 14.1227C50.0458 15.0699 50.7754 15.936 51.7354 15.936H52.5439C53.4847 15.936 54.2869 15.2683 54.4746 14.3467C54.8671 12.4203 55.3044 10.8501 55.7844 9.6384C56.3903 8.1088 57.0431 7.0272 57.7429 6.39147C58.4426 5.75787 59.1743 5.44 59.9402 5.44C60.4991 5.44 60.8959 5.64907 61.1306 6.06933C61.3631 6.4896 61.378 7.11893 61.1733 7.95947L60.2218 12.2411C60.0597 12.9109 59.9402 13.5829 59.8677 14.2528C59.7695 15.1488 60.4607 15.9339 61.361 15.9339H64.1407C64.1407 15.2811 64.1727 14.6325 64.2388 13.9883C64.3028 13.344 64.4116 12.6869 64.561 12.0149L65.4847 7.872C65.9519 5.83893 65.8239 4.2624 65.1071 3.1424C64.3882 2.0224 63.217 1.46347 61.5935 1.46347C60.4373 1.46347 59.3685 1.73867 58.3893 2.28907C57.4101 2.83947 56.546 3.63733 55.7994 4.68053C55.6116 3.6352 55.17 2.83733 54.4703 2.28907C53.7706 1.73867 52.8618 1.46347 51.7418 1.46347C50.5471 1.46347 49.4612 1.78133 48.482 2.41493C47.5028 3.04853 46.6495 3.97227 45.922 5.18613C46.0522 4.77013 46.1653 4.3648 46.2613 3.968C46.5407 2.80533 45.6661 1.6896 44.4714 1.6896H42.4255L42.2911 2.63253C42.8159 3.71413 43.0868 4.9728 43.0868 6.42347C43.0868 8.2048 42.7732 9.86667 42.1439 11.4112C41.6852 12.5397 41.0858 13.5616 40.3562 14.4875L40.354 14.4896Z" fill="#D87AA1"/>
<path d="M105.581 1.4656H104.431C103.727 1.4656 103.119 1.96693 102.976 2.656C102.571 4.6336 102.125 6.22933 101.64 7.44107C101.062 8.88747 100.437 9.91787 99.7652 10.5344C99.0932 11.1509 98.3743 11.4581 97.6106 11.4581C96.9578 11.4581 96.5247 11.2149 96.3092 10.7307C96.0938 10.2464 96.0618 9.58293 96.2111 8.74453L96.6868 6.25493C96.817 5.48907 96.9471 4.6976 97.0794 3.87627C97.1178 3.63947 97.1519 3.40267 97.1839 3.168C97.3055 2.26987 96.6186 1.46987 95.7119 1.46987H94.3935C93.6362 1.46987 93.0026 2.0416 92.9172 2.79467C92.8895 3.03573 92.8596 3.27893 92.8276 3.5264C92.7338 4.24533 92.5951 5.11787 92.4074 6.144L91.8762 9.056C91.5028 11.0699 91.6799 12.6379 92.4074 13.7579C93.1348 14.8779 94.338 15.4368 96.0191 15.4368C97.0068 15.4368 97.9647 15.1936 98.8884 14.7093C99.8122 14.2251 100.646 13.4869 101.393 12.4992L101.169 13.4507C100.796 14.9611 100.218 16.0725 99.4346 16.7808C98.6516 17.4891 97.4847 17.8432 95.9359 17.8432C95.0207 17.8432 94.225 17.7451 93.5423 17.5488C92.8618 17.3525 92.2218 17.0965 91.6244 16.7787L90.7306 19.1509C90.434 19.9403 90.8415 20.8448 91.65 21.0859C91.6564 21.0859 91.6607 21.0901 91.6671 21.0901C92.2367 21.2587 92.8426 21.3845 93.4868 21.4677C94.1311 21.5509 94.7412 21.5936 95.3194 21.5936C97.1476 21.5936 98.7434 21.3184 100.104 20.768C101.466 20.2176 102.586 19.3131 103.462 18.0523C104.339 16.7936 104.964 15.0912 105.338 12.9451L107.046 3.2128C107.206 2.304 106.507 1.46987 105.583 1.46987L105.581 1.4656Z" fill="#D87AA1"/>
<path d="M25.1497 3.93173C25.0494 3.65013 24.93 3.38347 24.7742 3.14453C24.0553 2.02453 22.8841 1.4656 21.2628 1.4656C20.1065 1.4656 19.0377 1.7408 18.0585 2.2912C17.0793 2.8416 16.2153 3.63947 15.4686 4.6848C15.2809 3.63947 14.8393 2.8416 14.1396 2.2912C13.4398 1.7408 12.531 1.4656 11.411 1.4656C10.2164 1.4656 9.1305 1.78347 8.1513 2.41707C7.1721 3.05067 6.31876 3.9744 5.5913 5.18827C5.72143 4.77227 5.8345 4.36693 5.92836 3.97013C6.20783 2.80747 5.33316 1.6896 4.1385 1.6896H2.09263L1.79823 3.74613C1.69583 4.46507 1.55076 5.35467 1.36516 6.4192L0.0254297 13.9925C-0.15377 15.0059 0.624897 15.9339 1.6553 15.9339H2.50436C3.36196 15.9339 4.09796 15.3216 4.2665 14.4789C4.66543 12.4907 5.1049 10.8757 5.5913 9.63627C6.18863 8.10667 6.83716 7.02507 7.5369 6.38933C8.23663 5.75573 8.96836 5.43787 9.73423 5.43787C10.8542 5.43787 11.2638 6.2784 10.9652 7.95733L9.88356 14.1205C9.71716 15.0677 10.4468 15.9339 11.4068 15.9339H12.2153C13.1561 15.9339 13.9582 15.2661 14.146 14.3445C14.5385 12.4181 14.9758 10.848 15.4558 9.63627C16.0617 8.10667 16.7145 7.02507 17.4142 6.38933C18.114 5.75573 18.8457 5.43787 19.6116 5.43787C20.1705 5.43787 20.5673 5.64693 20.802 6.0672C21.0345 6.48747 21.0494 7.1168 20.8446 7.95733L19.8932 12.2389C19.731 12.9088 19.6116 13.5808 19.539 14.2507C19.4409 15.1467 20.1321 15.9317 21.0324 15.9317H23.8121C23.8121 15.6821 23.8206 15.4347 23.8313 15.1872C23.2617 14.0843 22.9716 12.7872 22.9716 11.2917C22.9716 9.56373 23.266 7.93387 23.8548 6.40213C24.194 5.51893 24.6334 4.69973 25.1518 3.9296L25.1497 3.93173Z" fill="#D87AA1"/>
<path d="M46.3381 24.3115C46.5813 24.3115 46.8223 24.3456 47.057 24.4096C47.2917 24.4757 47.4858 24.5653 47.6351 24.6763L49.2394 22.5707C49.6895 21.9797 49.3994 21.12 48.6826 20.9237L48.6378 20.9109C48.0447 20.7509 47.4005 20.6699 46.705 20.6699C44.881 20.6699 43.3151 21.2117 42.0074 22.2933C40.6997 23.3749 39.8677 24.9301 39.5114 26.9611L39.4261 27.4688H36.7466L36.3967 29.4848C36.2559 30.304 36.8853 31.0507 37.7151 31.0507H38.7775L37.6063 37.9819C37.4229 39.0336 38.2314 39.9979 39.3002 39.9979H41.5701L43.1231 31.0507H46.9034L47.249 29.0496C47.3919 28.224 46.7562 27.4667 45.9178 27.4667H43.6863L43.8271 26.6475C44.1087 25.0859 44.945 24.3051 46.3381 24.3051V24.3115Z" fill="#D87AA1"/>
<path d="M54.931 23.0976C54.9694 22.8523 55.0036 22.6091 55.0356 22.3701C55.155 21.472 54.466 20.672 53.5593 20.672H50.867C50.8116 21.3312 50.7305 22.0224 50.6281 22.7456C50.5236 23.4688 50.3785 24.3669 50.1908 25.44L49.1753 31.3088C49.0622 31.9104 48.9598 32.5312 48.866 33.1691V33.1883C48.7209 34.1589 49.4739 35.0315 50.4553 35.0315H53.0964C53.0964 34.3744 53.1433 33.7195 53.2372 33.0709C53.331 32.4224 53.4334 31.7589 53.5486 31.0827L54.5364 25.5531C54.6686 24.7637 54.7987 23.9445 54.931 23.0976Z" fill="#D87AA1"/>
<path d="M66.3274 23.5648L67.2789 20.9259C67.0165 20.832 66.7477 20.7659 66.4746 20.7296C66.2015 20.6933 65.905 20.672 65.5871 20.672C64.6079 20.672 63.6415 20.9643 62.6815 21.5467C61.7215 22.1291 60.8767 23.0976 60.1429 24.4523C60.3114 23.7931 60.4586 23.1552 60.5802 22.5344L60.5845 22.5152C60.7487 21.6768 60.1087 20.8981 59.2533 20.8981H56.6122C56.5674 20.8981 56.529 20.9323 56.5247 20.9771C56.4693 21.6107 56.3903 22.2763 56.2922 22.9717C56.1877 23.6971 56.0426 24.5931 55.8549 25.6661L54.4362 33.7045C54.2933 34.5152 54.9162 35.2576 55.7397 35.2576H58.4042C58.4469 35.2576 58.4831 35.2256 58.4917 35.1829C58.9205 32.7168 59.4005 30.7243 59.9317 29.2053C60.4671 27.6736 61.0986 26.5621 61.8218 25.8773C62.545 25.1904 63.4154 24.8469 64.4309 24.8469H64.4479C65.2863 24.8491 66.0437 24.3541 66.3295 23.5648H66.3274Z" fill="#D87AA1"/>
<path d="M71.8912 24.3392C72.2666 24.1323 72.7466 24.0299 73.3312 24.0299C74.4682 24.0299 75.1445 24.4011 75.36 25.1456C75.4069 25.3099 75.5861 25.3952 75.7504 25.3525L76.7573 25.0923C78.257 24.7019 78.7136 22.7328 77.4805 21.7941C77.472 21.7877 77.4613 21.7792 77.4506 21.7728C76.4714 21.0389 75.2213 20.672 73.6981 20.672C72.5312 20.672 71.4453 20.8704 70.4405 21.2651C69.4336 21.6597 68.6208 22.2379 68 22.9995C67.3792 23.7611 67.0698 24.6976 67.0698 25.8069C67.0698 26.5963 67.2341 27.2363 67.5648 27.7248C67.8933 28.2133 68.3221 28.5995 68.849 28.8811C69.376 29.1627 69.9306 29.3845 70.513 29.5445C71.0954 29.7045 71.6501 29.8411 72.177 29.9541C72.704 30.0672 73.1306 30.208 73.4613 30.3765C73.7898 30.5451 73.9541 30.7819 73.9541 31.0805C73.9541 31.4389 73.7578 31.7099 73.361 31.8997C72.9664 32.0875 72.4032 32.1813 71.6693 32.1813C70.8416 32.1813 70.1888 32.0256 69.7088 31.7163C69.329 31.4709 69.0986 31.1403 69.0197 30.7221C68.9856 30.5387 68.8064 30.4213 68.625 30.464L66.9632 30.8651C65.8346 31.136 65.3098 32.4736 65.9946 33.4123C66.2506 33.7643 66.5728 34.0843 66.9589 34.3701C68.0128 35.1509 69.5168 35.5413 71.473 35.5413C72.64 35.5413 73.7344 35.3536 74.7605 34.976C75.7845 34.6005 76.608 34.0352 77.2288 33.2843C77.8496 32.5333 78.1589 31.5925 78.1589 30.464C78.1589 29.6939 77.9946 29.0667 77.6661 28.5888C77.3376 28.1088 76.913 27.7333 76.3968 27.4603C75.8784 27.1893 75.328 26.9717 74.7456 26.8117C74.1632 26.6517 73.6128 26.5067 73.0944 26.3744C72.5781 26.2421 72.1536 26.0928 71.825 25.9243C71.4965 25.7557 71.3322 25.5104 71.3322 25.1904C71.3322 24.8341 71.52 24.5504 71.8976 24.3435L71.8912 24.3392Z" fill="#D87AA1"/>
<path d="M87.5924 32.0085C87.2383 32.0768 86.882 32.1429 86.5215 32.1451C85.041 32.1515 84.4415 31.4368 84.7252 30.0011L85.7407 24.8107H88.8191L89.1199 23.0677C89.2863 22.1056 88.546 21.2267 87.5711 21.2267H86.417L86.7348 19.5797C86.8628 18.912 86.353 18.2933 85.6724 18.2933H82.6943L82.129 21.2267H79.6735L79.2788 23.5008C79.1615 24.1835 79.6863 24.8085 80.3796 24.8085H81.4228L80.4074 30.1397C80.2004 31.2491 80.2666 32.2368 80.6036 33.1029C80.9428 33.9691 81.5103 34.6453 82.3103 35.1339C83.1082 35.6224 84.1108 35.8677 85.314 35.8677C86.2356 35.8677 87.0719 35.7696 87.825 35.5712C88.5759 35.3728 89.1967 35.0763 89.6874 34.6816L89.3802 33.184C89.2116 32.3584 88.4074 31.8464 87.5882 32.0064L87.5924 32.0085Z" fill="#D87AA1"/>
<path d="M41.0752 10.6304C41.5914 9.35893 41.8517 7.99147 41.8517 6.52587C41.8517 4.48 41.216 2.88 39.9445 1.728C38.673 0.576 36.9728 0 34.8394 0C33.2458 0 31.8058 0.279467 30.5258 0.840533C29.3376 1.35893 28.3093 2.0672 27.4282 2.94613C27.4624 3.11467 27.5093 3.26827 27.5605 3.39627C27.9978 4.48 29.2096 5.0368 30.0416 5.5872C30.7904 6.08213 31.345 6.93333 30.4256 7.648C30.368 7.6928 30.2549 7.7632 30.0842 7.85493C30.0138 7.89333 30.0138 7.93387 30.0842 7.97013C30.2805 8.0768 30.5194 8.2176 30.7946 8.38827C32.0021 9.13707 33.152 10.2891 33.1093 11.8229C33.0773 12.9899 32.704 13.9008 31.7418 14.5856C31.1808 14.9845 30.4234 15.1872 29.9925 15.424C29.5637 15.6608 29.3589 16.0405 29.3781 16.5653C29.3802 16.6485 29.3781 16.7339 29.3696 16.8171C30.0096 16.9536 30.6986 17.0261 31.4453 17.0261C32.9536 17.0261 34.3381 16.7573 35.5968 16.2176C36.8576 15.68 37.9562 14.9312 38.8928 13.9712C39.8293 13.0133 40.5568 11.8976 41.073 10.6261L41.0752 10.6304Z" fill="#D87AA1"/>
<path d="M24.7189 7.72907C24.4906 8.6272 24.369 9.55947 24.369 10.5323C24.369 11.5051 24.5077 12.2859 24.7722 13.0283C25.4464 12.1216 25.4144 11.0229 25.2949 9.94347C25.2096 9.17333 25.0282 8.43733 24.7189 7.72907Z" fill="#D87AA1"/>
<path d="M95.5605 26.2805C95.5605 25.7813 95.1573 25.3781 94.6581 25.3781H93.3034V28.0853H93.7557V27.1829H94.5237L94.8842 28.0853H95.3365L94.9568 27.1253C95.3088 27.0037 95.5626 26.6731 95.5626 26.2784L95.5605 26.2805ZM94.6581 26.7328H93.7557V25.8304H94.6581C94.9269 25.8304 95.1104 26.0139 95.1104 26.2827C95.1104 26.5515 94.9269 26.7349 94.6581 26.7349V26.7328Z" fill="#D87AA1"/>
<path d="M94.2057 23.7995C92.5887 23.7995 91.2724 25.1157 91.2724 26.7328C91.2724 28.3499 92.5887 29.6661 94.2057 29.6661C95.8228 29.6661 97.1391 28.3499 97.1391 26.7328C97.1391 25.1157 95.8228 23.7995 94.2057 23.7995ZM94.2057 29.2139C92.8319 29.2139 91.7247 28.1045 91.7247 26.7328C91.7247 25.3611 92.834 24.2517 94.2057 24.2517C95.5775 24.2517 96.6868 25.3611 96.6868 26.7328C96.6868 28.1045 95.5775 29.2139 94.2057 29.2139Z" fill="#D87AA1"/>
</g>
<defs>
<clipPath id="clip0_13715_2475">
<rect width="107.068" height="40" fill="white"/>
</clipPath>
</defs>
</svg>
