<svg width="144" height="142" viewBox="0 0 144 142" fill="none" xmlns="http://www.w3.org/2000/svg">
<path d="M69.8268 118.083C95.6001 118.083 116.493 97.0034 116.493 71C116.493 44.9966 95.6001 23.9167 69.8268 23.9167C44.0535 23.9167 23.1602 44.9966 23.1602 71C23.1602 97.0034 44.0535 118.083 69.8268 118.083Z" fill="#FFE6F1"/>
<path d="M51.1602 80.4167C51.1602 80.4167 58.1602 89.8334 69.8268 89.8334C81.4935 89.8334 88.4935 80.4167 88.4935 80.4167" fill="#FFE6F1"/>
<path d="M86.1602 56.875C86.1602 58.1752 85.1155 59.2292 83.8268 59.2292C82.5382 59.2292 81.4935 58.1752 81.4935 56.875C81.4935 55.5748 82.5382 54.5209 83.8268 54.5209C85.1155 54.5209 86.1602 55.5748 86.1602 56.875Z" fill="#FFE6F1"/>
<path d="M58.1602 56.875C58.1602 58.1752 57.1155 59.2292 55.8268 59.2292C54.5382 59.2292 53.4935 58.1752 53.4935 56.875C53.4935 55.5748 54.5382 54.5209 55.8268 54.5209C57.1155 54.5209 58.1602 55.5748 58.1602 56.875Z" fill="#FFE6F1"/>
<path d="M51.1602 80.4167C51.1602 80.4167 58.1602 89.8333 69.8268 89.8333C81.4935 89.8333 88.4935 80.4167 88.4935 80.4167M83.8268 56.875H83.8735M55.8268 56.875H55.8735M116.493 71C116.493 97.0034 95.6001 118.083 69.8268 118.083C44.0535 118.083 23.1602 97.0034 23.1602 71C23.1602 44.9966 44.0535 23.9167 69.8268 23.9167C95.6001 23.9167 116.493 44.9966 116.493 71ZM86.1602 56.875C86.1602 58.1752 85.1155 59.2292 83.8268 59.2292C82.5382 59.2292 81.4935 58.1752 81.4935 56.875C81.4935 55.5748 82.5382 54.5209 83.8268 54.5209C85.1155 54.5209 86.1602 55.5748 86.1602 56.875ZM58.1602 56.875C58.1602 58.1752 57.1155 59.2292 55.8268 59.2292C54.5382 59.2292 53.4935 58.1752 53.4935 56.875C53.4935 55.5748 54.5382 54.5209 55.8268 54.5209C57.1155 54.5209 58.1602 55.5748 58.1602 56.875Z" stroke="#DC5F92" stroke-width="2" stroke-linecap="round" stroke-linejoin="round"/>
<path d="M1 32.8967L17.4212 34.5533" stroke="#DC5F92" stroke-width="2" stroke-linecap="round" stroke-linejoin="round"/>
<path d="M134.312 32.8967L117.891 34.5533" stroke="#DC5F92" stroke-width="2" stroke-linecap="round" stroke-linejoin="round"/>
<path d="M18.0078 10L29.9102 17.4784" stroke="#DC5F92" stroke-width="2" stroke-linecap="round" stroke-linejoin="round"/>
<path d="M117.305 10L105.402 17.4784" stroke="#DC5F92" stroke-width="2" stroke-linecap="round" stroke-linejoin="round"/>
</svg>
