<svg width="156" height="40" viewBox="0 0 156 40" fill="none" xmlns="http://www.w3.org/2000/svg">
<rect width="156" height="40" rx="7" fill="#372035"/>
<path d="M24.7529 20.3011C24.7637 19.4665 24.9852 18.6481 25.397 17.9221C25.8088 17.1962 26.3973 16.5862 27.108 16.1491C26.6565 15.5039 26.061 14.973 25.3686 14.5984C24.6762 14.2238 23.9061 14.016 23.1194 13.9914C21.4412 13.8151 19.8143 14.9962 18.9592 14.9962C18.0875 14.9962 16.7708 14.0089 15.353 14.0381C14.4359 14.0677 13.5421 14.3346 12.7588 14.8126C11.9754 15.2907 11.3291 15.9636 10.883 16.7659C8.9502 20.1144 10.3919 25.0354 12.2433 27.742C13.1696 29.0674 14.2522 30.5478 15.6687 30.4953C17.0549 30.4378 17.5726 29.6108 19.2458 29.6108C20.9035 29.6108 21.3892 30.4953 22.8345 30.4619C24.3219 30.4378 25.259 29.1307 26.1528 27.7928C26.8184 26.8484 27.3305 25.8047 27.6703 24.7003C26.8061 24.3346 26.0687 23.7224 25.5499 22.9401C25.0311 22.1578 24.7539 21.24 24.7529 20.3011Z" fill="white"/>
<path d="M22.0231 12.2113C22.8341 11.2371 23.2336 9.98494 23.1369 8.7207C21.8978 8.85092 20.7533 9.44348 19.9313 10.3803C19.5295 10.838 19.2217 11.3704 19.0255 11.9472C18.8294 12.524 18.7488 13.1337 18.7884 13.7417C19.4081 13.7481 20.0212 13.6137 20.5815 13.3486C21.1418 13.0835 21.6347 12.6946 22.0231 12.2113Z" fill="white"/>
<path d="M46.1192 30.4961V21.3565H46.0587L42.318 30.4014H40.8902L37.1396 21.3565H37.0801V30.4962H35.3254V18.0782H37.5534L41.5694 27.8799H41.6377L45.6459 18.0782H47.8817V30.4962L46.1192 30.4961Z" fill="white"/>
<path d="M49.3642 27.9229C49.3642 26.3399 50.5763 25.3838 52.7272 25.2549L55.2042 25.1172V24.4287C55.2042 23.4219 54.5415 22.8535 53.4143 22.8535C52.9968 22.798 52.5734 22.8968 52.2236 23.1314C51.8737 23.3661 51.6215 23.7204 51.5142 24.1279H49.777C49.8287 22.4922 51.3512 21.3311 53.466 21.3311C55.6248 21.3311 57.0526 22.5098 57.0526 24.2911V30.4961H55.2725V29.0069H55.2295C54.9444 29.5119 54.529 29.9309 54.0267 30.2202C53.5243 30.5095 52.9535 30.6584 52.3739 30.6514C51.9933 30.6887 51.6091 30.6459 51.246 30.5258C50.8828 30.4056 50.5488 30.2108 50.2654 29.9539C49.982 29.6969 49.7554 29.3835 49.6002 29.0338C49.445 28.684 49.3646 28.3056 49.3642 27.9229ZM55.2042 27.1055V26.4083L52.9761 26.546C51.8665 26.6153 51.2389 27.0967 51.2389 27.8712C51.2389 28.6632 51.8928 29.1797 52.8902 29.1797C53.1791 29.1994 53.469 29.1609 53.7427 29.0666C54.0165 28.9724 54.2687 28.8242 54.4843 28.6309C54.7 28.4376 54.8748 28.203 54.9984 27.9411C55.122 27.6791 55.192 27.395 55.2042 27.1055Z" fill="white"/>
<path d="M64.8513 24.5577C64.7701 24.0624 64.5057 23.6159 64.1107 23.3067C63.7156 22.9975 63.2188 22.8483 62.7189 22.8887C61.2911 22.8887 60.3454 24.085 60.3454 25.9698C60.3454 27.8975 61.2999 29.0586 62.7355 29.0586C63.2287 29.1081 63.7222 28.9674 64.1154 28.6652C64.5086 28.3631 64.7717 27.9223 64.8513 27.4326H66.6401C66.5288 28.3689 66.0567 29.2246 65.3244 29.8178C64.592 30.411 63.6571 30.6946 62.7189 30.6085C60.1385 30.6085 58.4531 28.8438 58.4531 25.9698C58.4531 23.1553 60.1385 21.3311 62.7013 21.3311C63.6465 21.2509 64.5856 21.5434 65.3183 22.1461C66.051 22.7489 66.5194 23.6143 66.6236 24.5577H64.8513Z" fill="white"/>
<path d="M78.7086 27.1397H73.9782L72.8422 30.4962H70.8386L75.3191 18.0782H77.4008L81.8813 30.4962H79.8435L78.7086 27.1397ZM74.4681 25.5909H78.2177L76.3693 20.1436H76.3176L74.4681 25.5909Z" fill="white"/>
<path d="M91.5577 25.9698C91.5577 28.7833 90.0528 30.5909 87.7818 30.5909C87.2065 30.621 86.6344 30.4884 86.1309 30.2082C85.6275 29.9281 85.213 29.5118 84.935 29.0069H84.892V33.4913H83.0349V21.4424H84.8325V22.9483H84.8667C85.1575 22.4458 85.5789 22.0316 86.0862 21.7498C86.5935 21.4679 87.1677 21.329 87.7477 21.3477C90.044 21.3477 91.5577 23.1641 91.5577 25.9698ZM89.6488 25.9698C89.6488 24.1368 88.7021 22.9317 87.2577 22.9317C85.8387 22.9317 84.8843 24.1622 84.8843 25.9698C84.8843 27.794 85.8387 29.0157 87.2577 29.0157C88.7021 29.0157 89.6488 27.8194 89.6488 25.9698Z" fill="white"/>
<path d="M101.516 25.9698C101.516 28.7833 100.011 30.5909 97.7402 30.5909C97.165 30.621 96.5928 30.4884 96.0894 30.2082C95.5859 29.9281 95.1714 29.5118 94.8934 29.0069H94.8505V33.4913H92.9933V21.4424H94.7909V22.9483H94.8251C95.1159 22.4458 95.5373 22.0316 96.0446 21.7498C96.5519 21.4679 97.1261 21.329 97.706 21.3477C100.002 21.3477 101.516 23.1641 101.516 25.9698ZM99.6072 25.9698C99.6072 24.1368 98.6605 22.9317 97.2161 22.9317C95.7971 22.9317 94.8427 24.1622 94.8427 25.9698C94.8427 27.794 95.7971 29.0157 97.2161 29.0157C98.6605 29.0157 99.6072 27.8194 99.6072 25.9698Z" fill="white"/>
<path d="M108.098 27.0362C108.235 28.2676 109.431 29.0762 111.065 29.0762C112.63 29.0762 113.756 28.2676 113.756 27.1572C113.756 26.1934 113.077 25.6162 111.469 25.2207L109.86 24.833C107.582 24.2822 106.524 23.2158 106.524 21.4854C106.524 19.3428 108.39 17.8711 111.039 17.8711C113.662 17.8711 115.459 19.3428 115.52 21.4854H113.645C113.533 20.2461 112.509 19.4981 111.013 19.4981C109.517 19.4981 108.493 20.2549 108.493 21.3565C108.493 22.2344 109.147 22.751 110.746 23.1465L112.114 23.4824C114.66 24.0849 115.718 25.1084 115.718 26.9248C115.718 29.248 113.868 30.7031 110.927 30.7031C108.175 30.7031 106.317 29.2822 106.197 27.0361L108.098 27.0362Z" fill="white"/>
<path d="M119.726 19.2999V21.4424H121.447V22.9141H119.726V27.9053C119.726 28.6807 120.071 29.042 120.827 29.042C121.031 29.0385 121.235 29.0241 121.438 28.999V30.4619C121.098 30.5255 120.752 30.5543 120.406 30.5479C118.574 30.5479 117.86 29.8594 117.86 28.1035V22.9141H116.545V21.4424H117.86V19.2999H119.726Z" fill="white"/>
<path d="M122.442 25.9698C122.442 23.1212 124.119 21.3311 126.733 21.3311C129.357 21.3311 131.025 23.1211 131.025 25.9698C131.025 28.8262 129.365 30.6085 126.733 30.6085C124.102 30.6085 122.442 28.8262 122.442 25.9698ZM129.133 25.9698C129.133 24.0157 128.238 22.8624 126.733 22.8624C125.228 22.8624 124.333 24.0245 124.333 25.9698C124.333 27.9317 125.228 29.0762 126.733 29.0762C128.238 29.0762 129.133 27.9317 129.133 25.9698Z" fill="white"/>
<path d="M132.558 21.4424H134.329V22.9834H134.372C134.492 22.5021 134.774 22.0768 135.17 21.7789C135.566 21.481 136.053 21.3288 136.548 21.3477C136.762 21.3469 136.976 21.3702 137.185 21.417V23.1553C136.914 23.0727 136.633 23.0348 136.35 23.043C136.08 23.0321 135.811 23.0797 135.562 23.1826C135.312 23.2854 135.088 23.4412 134.904 23.6391C134.72 23.837 134.581 24.0723 134.497 24.329C134.412 24.5857 134.384 24.8576 134.415 25.126V30.4961H132.558V21.4424Z" fill="white"/>
<path d="M145.746 27.837C145.497 29.4805 143.897 30.6084 141.85 30.6084C139.218 30.6084 137.585 28.8438 137.585 26.0127C137.585 23.1729 139.227 21.3311 141.772 21.3311C144.276 21.3311 145.85 23.0518 145.85 25.7969V26.4336H139.459V26.5459C139.43 26.8791 139.472 27.2148 139.582 27.5307C139.692 27.8465 139.868 28.1353 140.098 28.3778C140.328 28.6204 140.607 28.8111 140.917 28.9374C141.227 29.0637 141.559 29.1227 141.893 29.1104C142.332 29.1515 142.773 29.0498 143.149 28.8204C143.526 28.591 143.818 28.246 143.983 27.837L145.746 27.837ZM139.468 25.1348H143.992C144.008 24.8352 143.963 24.5354 143.858 24.2542C143.754 23.973 143.592 23.7165 143.384 23.5007C143.175 23.2849 142.925 23.1146 142.647 23.0004C142.37 22.8861 142.072 22.8305 141.772 22.837C141.47 22.8352 141.17 22.8933 140.89 23.008C140.61 23.1228 140.356 23.2919 140.142 23.5055C139.928 23.7191 139.758 23.9731 139.642 24.2527C139.527 24.5324 139.467 24.8322 139.468 25.1348Z" fill="white"/>
<path d="M37.8018 8.73052C38.1912 8.70256 38.5819 8.76142 38.9458 8.90286C39.3097 9.04429 39.6376 9.26477 39.906 9.54839C40.1745 9.83202 40.3766 10.1717 40.4979 10.543C40.6193 10.9143 40.6567 11.3078 40.6076 11.6954C40.6076 13.6016 39.578 14.6974 37.8018 14.6974H35.6479V8.73052H37.8018ZM36.5741 13.8535H37.6984C37.9766 13.8702 38.255 13.8245 38.5134 13.7199C38.7718 13.6153 39.0036 13.4543 39.192 13.2488C39.3803 13.0432 39.5205 12.7982 39.6023 12.5316C39.6841 12.265 39.7055 11.9834 39.6649 11.7075C39.7026 11.4327 39.679 11.1529 39.596 10.8883C39.5129 10.6236 39.3724 10.3806 39.1844 10.1767C38.9965 9.97273 38.7658 9.81292 38.5089 9.70868C38.252 9.60445 37.9752 9.55836 37.6984 9.57373H36.5741V13.8535Z" fill="white"/>
<path d="M41.6538 12.4439C41.6255 12.1479 41.6594 11.8494 41.7532 11.5673C41.8469 11.2852 41.9986 11.0259 42.1984 10.8059C42.3982 10.5859 42.6418 10.4102 42.9135 10.2899C43.1851 10.1696 43.4789 10.1075 43.776 10.1075C44.0731 10.1075 44.3669 10.1696 44.6386 10.2899C44.9102 10.4102 45.1538 10.5859 45.3536 10.8059C45.5534 11.0259 45.7051 11.2852 45.7989 11.5673C45.8926 11.8494 45.9265 12.1479 45.8982 12.4439C45.927 12.7401 45.8936 13.0391 45.8 13.3216C45.7065 13.6041 45.5549 13.8639 45.3551 14.0843C45.1552 14.3048 44.9115 14.4809 44.6395 14.6014C44.3676 14.722 44.0734 14.7842 43.776 14.7842C43.4786 14.7842 43.1844 14.722 42.9125 14.6014C42.6405 14.4809 42.3968 14.3048 42.1969 14.0843C41.9971 13.8639 41.8455 13.6041 41.752 13.3216C41.6584 13.0391 41.625 12.7401 41.6538 12.4439ZM44.9847 12.4439C44.9847 11.4678 44.5465 10.897 43.7775 10.897C43.0055 10.897 42.5712 11.4678 42.5712 12.4439C42.5712 13.4278 43.0055 13.9942 43.7775 13.9942C44.5465 13.9942 44.9847 13.4238 44.9847 12.4439Z" fill="white"/>
<path d="M51.54 14.6973H50.6188L49.6887 11.3809H49.6184L48.6923 14.6973H47.7798L46.5394 10.1943H47.4402L48.2463 13.6303H48.3126L49.2378 10.1943H50.0898L51.015 13.6303H51.0853L51.8875 10.1943H52.7756L51.54 14.6973Z" fill="white"/>
<path d="M53.8189 10.1943H54.6738V10.9097H54.7401C54.8527 10.6528 55.0426 10.4374 55.2833 10.2936C55.524 10.1498 55.8036 10.0847 56.083 10.1074C56.302 10.0909 56.5218 10.124 56.7263 10.2041C56.9308 10.2842 57.1146 10.4093 57.2642 10.5701C57.4138 10.731 57.5253 10.9234 57.5904 11.1333C57.6556 11.3431 57.6727 11.5649 57.6406 11.7822V14.6972H56.7525V12.0054C56.7525 11.2818 56.4383 10.9219 55.7815 10.9219C55.6328 10.915 55.4844 10.9403 55.3464 10.9961C55.2085 11.0519 55.0842 11.137 54.9821 11.2453C54.8801 11.3537 54.8026 11.4829 54.7551 11.624C54.7076 11.7652 54.6912 11.9149 54.7069 12.063V14.6973H53.8188L53.8189 10.1943Z" fill="white"/>
<path d="M59.0557 8.43652H59.9438V14.6973H59.0557V8.43652Z" fill="white"/>
<path d="M61.1784 12.4439C61.1501 12.1479 61.1839 11.8494 61.2777 11.5673C61.3715 11.2852 61.5231 11.0259 61.7229 10.8059C61.9228 10.5859 62.1663 10.4102 62.438 10.2899C62.7097 10.1696 63.0035 10.1075 63.3005 10.1075C63.5976 10.1075 63.8914 10.1696 64.1631 10.2899C64.4348 10.4102 64.6783 10.5859 64.8781 10.8059C65.0779 11.0259 65.2296 11.2852 65.3234 11.5673C65.4172 11.8494 65.451 12.1479 65.4227 12.4439C65.4515 12.7401 65.4181 13.0391 65.3246 13.3216C65.231 13.6041 65.0795 13.8639 64.8796 14.0843C64.6797 14.3048 64.436 14.4809 64.1641 14.6014C63.8921 14.722 63.598 14.7842 63.3005 14.7842C63.0031 14.7842 62.709 14.722 62.437 14.6014C62.1651 14.4809 61.9213 14.3048 61.7215 14.0843C61.5216 13.8639 61.37 13.6041 61.2765 13.3216C61.183 13.0391 61.1495 12.7401 61.1784 12.4439ZM64.5092 12.4439C64.5092 11.4678 64.071 10.897 63.302 10.897C62.53 10.897 62.0958 11.4678 62.0958 12.4439C62.0958 13.4278 62.5301 13.9942 63.302 13.9942C64.071 13.9942 64.5092 13.4238 64.5092 12.4439Z" fill="white"/>
<path d="M66.3576 13.4238C66.3576 12.6133 66.9608 12.146 68.0314 12.0796L69.2503 12.0093V11.6206C69.2503 11.145 68.9361 10.8765 68.329 10.8765C67.8333 10.8765 67.4897 11.0586 67.3912 11.377H66.5314C66.6221 10.6035 67.3492 10.1074 68.37 10.1074C69.4982 10.1074 70.1345 10.6694 70.1345 11.6206V14.6973H69.2796V14.0645H69.2093C69.0667 14.2915 68.8664 14.4765 68.629 14.6007C68.3915 14.7249 68.1253 14.7839 67.8577 14.7715C67.6687 14.7911 67.4778 14.771 67.2972 14.7123C67.1165 14.6536 66.9502 14.5576 66.8089 14.4307C66.6675 14.3037 66.5544 14.1485 66.4766 13.9751C66.3989 13.8017 66.3584 13.6139 66.3576 13.4238ZM69.2503 13.0391V12.6626L68.1514 12.7329C67.5317 12.7744 67.2506 12.9854 67.2506 13.3823C67.2506 13.7876 67.602 14.0234 68.0851 14.0234C68.2266 14.0378 68.3696 14.0235 68.5055 13.9814C68.6415 13.9393 68.7675 13.8703 68.8762 13.7784C68.985 13.6866 69.0741 13.5738 69.1384 13.4468C69.2026 13.3198 69.2407 13.1811 69.2503 13.0391Z" fill="white"/>
<path d="M71.3017 12.4439C71.3017 11.021 72.0327 10.1196 73.1697 10.1196C73.4509 10.1067 73.73 10.1741 73.9744 10.314C74.2188 10.4539 74.4183 10.6605 74.5496 10.9096H74.616V8.43652H75.5041V14.6973H74.6531V13.9858H74.5828C74.4413 14.2333 74.2348 14.4374 73.9857 14.5758C73.7366 14.7143 73.4544 14.782 73.1697 14.7715C72.0249 14.7715 71.3017 13.8701 71.3017 12.4439ZM72.2191 12.4439C72.2191 13.3989 72.669 13.9737 73.4215 13.9737C74.17 13.9737 74.6326 13.3907 74.6326 12.4478C74.6326 11.5093 74.1652 10.918 73.4215 10.918C72.6739 10.918 72.2191 11.4966 72.2191 12.4439Z" fill="white"/>
<path d="M79.1785 12.4439C79.1502 12.1479 79.1841 11.8493 79.2779 11.5673C79.3717 11.2852 79.5234 11.0258 79.7232 10.8058C79.923 10.5859 80.1666 10.4101 80.4383 10.2898C80.71 10.1695 81.0038 10.1074 81.3009 10.1074C81.598 10.1074 81.8918 10.1695 82.1635 10.2898C82.4352 10.4101 82.6788 10.5859 82.8786 10.8058C83.0784 11.0258 83.2301 11.2852 83.3239 11.5673C83.4177 11.8493 83.4516 12.1479 83.4233 12.4439C83.4521 12.7401 83.4186 13.0391 83.3251 13.3216C83.2315 13.6041 83.0799 13.8639 82.88 14.0843C82.6802 14.3048 82.4364 14.4809 82.1645 14.6014C81.8925 14.7219 81.5983 14.7842 81.3009 14.7842C81.0035 14.7842 80.7093 14.7219 80.4373 14.6014C80.1654 14.4809 79.9216 14.3048 79.7218 14.0843C79.5219 13.8639 79.3703 13.6041 79.2767 13.3216C79.1832 13.0391 79.1497 12.7401 79.1785 12.4439ZM82.5093 12.4439C82.5093 11.4678 82.0711 10.897 81.3021 10.897C80.5302 10.897 80.0959 11.4678 80.0959 12.4439C80.0959 13.4278 80.5302 13.9942 81.3021 13.9942C82.0711 13.9942 82.5093 13.4238 82.5093 12.4439Z" fill="white"/>
<path d="M84.6149 10.1943H85.4698V10.9097H85.5362C85.6488 10.6528 85.8387 10.4374 86.0794 10.2936C86.3201 10.1498 86.5997 10.0847 86.8791 10.1074C87.098 10.0909 87.3179 10.124 87.5224 10.2041C87.7268 10.2842 87.9107 10.4093 88.0603 10.5701C88.2098 10.731 88.3214 10.9234 88.3865 11.1333C88.4517 11.3431 88.4688 11.5649 88.4367 11.7822V14.6972H87.5486V12.0054C87.5486 11.2818 87.2343 10.9219 86.5775 10.9219C86.4289 10.915 86.2805 10.9403 86.1425 10.9961C86.0045 11.0519 85.8802 11.137 85.7782 11.2453C85.6761 11.3537 85.5987 11.4829 85.5512 11.624C85.5037 11.7652 85.4873 11.9149 85.503 12.063V14.6973H84.6149V10.1943Z" fill="white"/>
<path d="M93.4549 9.07325V10.2149H94.4299V10.9634H93.4549V13.2788C93.4549 13.7505 93.6491 13.957 94.0912 13.957C94.2044 13.9567 94.3175 13.9498 94.4299 13.9365V14.6768C94.2704 14.7053 94.1088 14.7205 93.9468 14.7222C92.9592 14.7222 92.5659 14.3745 92.5659 13.5064V10.9634H91.8515V10.2148H92.5659V9.07325H93.4549Z" fill="white"/>
<path d="M95.643 8.43652H96.5233V10.918H96.5935C96.7116 10.6587 96.9067 10.4421 97.1522 10.2977C97.3978 10.1534 97.6818 10.0883 97.9656 10.1113C98.1835 10.0995 98.4012 10.1359 98.6034 10.2179C98.8055 10.2999 98.9871 10.4256 99.1351 10.586C99.2831 10.7463 99.394 10.9373 99.4597 11.1455C99.5254 11.3536 99.5445 11.5737 99.5154 11.79V14.6973H98.6264V12.0093C98.6264 11.29 98.2917 10.9258 97.6642 10.9258C97.5115 10.9132 97.358 10.9342 97.2143 10.9873C97.0706 11.0404 96.9403 11.1242 96.8323 11.2329C96.7244 11.3417 96.6415 11.4727 96.5895 11.6168C96.5375 11.761 96.5175 11.9147 96.5311 12.0674V14.6973H95.643L95.643 8.43652Z" fill="white"/>
<path d="M104.694 13.4815C104.573 13.893 104.312 14.249 103.955 14.4871C103.599 14.7253 103.17 14.8304 102.744 14.7842C102.447 14.792 102.153 14.7352 101.88 14.6177C101.608 14.5001 101.365 14.3247 101.167 14.1036C100.969 13.8824 100.822 13.6209 100.735 13.3371C100.648 13.0532 100.625 12.754 100.665 12.46C100.626 12.1651 100.65 11.8652 100.736 11.5805C100.823 11.2958 100.969 11.033 101.166 10.81C101.363 10.5869 101.605 10.4087 101.877 10.2875C102.148 10.1663 102.443 10.1049 102.74 10.1074C103.992 10.1074 104.747 10.9634 104.747 12.3774V12.6875H101.57V12.7373C101.556 12.9026 101.577 13.0689 101.631 13.2256C101.685 13.3824 101.771 13.5261 101.884 13.6476C101.997 13.769 102.134 13.8655 102.286 13.9309C102.438 13.9963 102.603 14.0292 102.768 14.0273C102.981 14.0528 103.196 14.0146 103.387 13.9174C103.577 13.8202 103.735 13.6684 103.839 13.4814L104.694 13.4815ZM101.57 12.0303H103.843C103.854 11.8792 103.833 11.7274 103.782 11.5846C103.732 11.4419 103.651 11.3114 103.547 11.2016C103.443 11.0917 103.317 11.0049 103.177 10.9467C103.037 10.8886 102.886 10.8603 102.735 10.8638C102.581 10.8619 102.429 10.8907 102.287 10.9487C102.144 11.0066 102.015 11.0925 101.907 11.2012C101.798 11.3099 101.712 11.4393 101.654 11.5816C101.597 11.724 101.568 11.8766 101.57 12.0303Z" fill="white"/>
</svg>
