<svg width="768" height="262" viewBox="0 0 768 262" fill="none" xmlns="http://www.w3.org/2000/svg">
<g clip-path="url(#clip0_13715_2470)">
<path d="M989.909 97.0731C985.993 85.8831 981.237 75.5324 975.083 66.0209C946.828 21.8205 900.669 0 836.887 0C791.287 0 749.325 10.9102 710.72 32.4509C672.114 53.9917 638.264 85.6034 608.891 126.727C601.617 85.6034 583.993 54.2714 556.578 32.4509C529.162 10.9102 493.074 0 449.154 0C402.156 0 359.354 12.5887 320.749 37.4864C282.143 62.3841 248.573 98.7516 220.039 146.589C225.074 130.363 229.55 114.138 233.467 98.7516C244.377 52.8727 209.968 8.95199 162.97 8.95199H82.4021L70.9324 89.7996C67.0159 118.054 61.1412 153.023 53.8677 194.985L0.995035 493.198C-5.9987 532.923 24.7737 569.57 65.0577 569.57H98.3479C132.198 569.57 161.012 545.512 167.726 512.221C183.392 433.892 200.736 370.388 219.759 321.432C243.258 261.286 268.715 218.484 296.411 193.587C323.826 168.689 352.64 156.1 382.853 156.1C427.054 156.1 442.999 189.111 431.25 255.132L388.728 497.674C382.294 534.881 410.828 569.011 448.594 569.011H480.486C517.413 569.011 549.024 542.714 556.578 506.347C571.964 430.535 589.308 368.71 608.051 321.152C631.83 261.006 657.567 218.205 685.262 193.307C712.678 168.409 741.772 155.82 771.705 155.82C793.805 155.82 809.471 164.213 818.423 180.718C827.655 197.223 828.214 222.121 820.102 255.132L782.615 423.821C776.181 450.117 771.425 476.693 768.628 502.99C764.711 538.238 791.847 569.29 827.375 569.29H936.757C936.757 559.499 937.037 549.708 937.596 539.917C915.216 496.555 903.747 445.361 903.747 386.614C903.747 318.635 915.216 254.292 938.436 194.146C951.864 159.457 969.208 127.006 989.63 96.7933" fill="#372035"/>
</g>
<defs>
<clipPath id="clip0_13715_2470">
<rect width="990" height="350" fill="white"/>
</clipPath>
</defs>
</svg>
