<svg width="20" height="20" viewBox="0 0 20 20" fill="none" xmlns="http://www.w3.org/2000/svg">
<g clip-path="url(#clip0_13715_2435)">
<path fill-rule="evenodd" clip-rule="evenodd" d="M18.9555 4.02798C19.2658 4.34029 19.4887 4.72861 19.6017 5.1541C20.0199 6.72456 20.0199 9.99956 20.0199 9.99956C20.0199 9.99956 20.0199 13.2746 19.6017 14.845C19.4887 15.2705 19.2658 15.6588 18.9555 15.9711C18.6452 16.2834 18.2583 16.5088 17.8336 16.6246C16.2699 17.045 10.0199 17.045 10.0199 17.045C10.0199 17.045 3.76993 17.045 2.20629 16.6246C1.78154 16.5088 1.39464 16.2834 1.08433 15.9711C0.774025 15.6588 0.551183 15.2705 0.43811 14.845C0.019928 13.2746 0.019928 9.99956 0.019928 9.99956C0.019928 9.99956 0.019928 6.72456 0.43811 5.1541C0.551183 4.72861 0.774025 4.34029 1.08433 4.02798C1.39464 3.71568 1.78154 3.49035 2.20629 3.37456C3.76993 2.9541 10.0199 2.9541 10.0199 2.9541C10.0199 2.9541 16.2699 2.9541 17.8336 3.37456C18.2583 3.49035 18.6452 3.71568 18.9555 4.02798ZM13.2017 9.99957L7.97444 7.02571V12.9734L13.2017 9.99957Z" fill="#372035"/>
</g>
<defs>
<clipPath id="clip0_13715_2435">
<rect width="20" height="20" fill="white"/>
</clipPath>
</defs>
</svg>
